<svg id="svg" version="1.1" xmlns="http://www.w3.org/2000/svg" xmlns:xlink="http://www.w3.org/1999/xlink" width="400" height="146.35416666666666" viewBox="0, 0, 400,146.35416666666666"><g id="svgg"><path id="path0" d="M135.167 73.595 L 135.167 91.690 142.875 91.628 C 151.070 91.563,150.986 91.570,153.943 90.667 C 157.313 89.638,162.333 85.475,162.333 83.710 C 162.333 83.594,162.399 83.500,162.479 83.500 C 162.906 83.500,163.907 80.249,164.262 77.710 C 164.950 72.783,163.929 64.584,162.514 63.672 C 162.439 63.623,162.179 63.190,161.936 62.709 C 161.390 61.627,159.531 59.630,158.515 59.034 C 158.098 58.790,157.618 58.452,157.449 58.282 C 156.809 57.642,153.620 56.458,151.333 56.011 C 149.535 55.660,146.335 55.505,140.792 55.503 L 135.167 55.500 135.167 73.595 M170.611 55.611 C 170.550 55.672,170.500 63.810,170.500 73.694 L 170.500 91.667 182.583 91.667 L 194.667 91.667 194.667 87.583 L 194.667 83.500 187.583 83.500 L 180.500 83.500 180.500 80.500 L 180.500 77.500 186.417 77.500 L 192.333 77.500 192.333 73.333 L 192.333 69.167 186.417 69.167 L 180.500 69.167 180.500 66.500 L 180.500 63.833 187.333 63.833 L 194.167 63.833 194.167 59.667 L 194.167 55.500 182.444 55.500 C 175.997 55.500,170.672 55.550,170.611 55.611 M201.500 73.562 L 201.500 91.657 206.333 91.703 L 211.167 91.750 211.167 85.792 L 211.167 79.833 212.889 79.833 L 214.612 79.833 215.087 80.792 C 215.348 81.319,215.880 82.319,216.269 83.015 C 216.658 83.711,217.808 85.942,218.824 87.974 L 220.671 91.667 226.169 91.667 C 230.171 91.667,231.667 91.615,231.667 91.477 C 231.667 91.372,231.442 90.921,231.167 90.474 C 230.892 90.027,230.667 89.636,230.667 89.605 C 230.667 89.573,230.279 88.881,229.806 88.066 C 228.153 85.220,227.167 83.471,227.167 83.386 C 227.167 83.240,225.300 79.933,225.060 79.654 C 224.842 79.400,223.974 77.775,224.047 77.758 C 224.067 77.753,224.324 77.580,224.618 77.374 C 224.912 77.168,225.212 76.997,225.285 76.994 C 226.025 76.959,229.000 72.774,229.000 71.769 C 229.000 71.636,229.072 71.503,229.160 71.472 C 229.919 71.209,229.923 63.000,229.164 63.000 C 229.097 63.000,228.995 62.765,228.937 62.478 C 228.592 60.754,226.512 58.456,224.333 57.392 C 220.984 55.758,220.102 55.644,209.958 55.548 L 201.500 55.467 201.500 73.562 M236.167 73.583 L 236.167 91.667 241.167 91.667 L 246.167 91.667 246.167 73.583 L 246.167 55.500 241.167 55.500 L 236.167 55.500 236.167 73.583 M249.167 55.682 C 249.167 56.046,249.889 58.251,250.026 58.306 C 250.103 58.336,250.167 58.472,250.167 58.608 C 250.167 58.745,250.460 59.845,250.818 61.053 C 251.176 62.261,251.853 64.637,252.324 66.333 C 252.794 68.029,253.619 70.804,254.158 72.500 C 254.696 74.196,255.790 77.908,256.589 80.750 C 257.388 83.592,258.174 86.217,258.337 86.583 C 258.500 86.950,258.872 88.155,259.163 89.262 C 259.455 90.369,259.747 91.361,259.813 91.466 C 259.898 91.605,261.570 91.662,265.840 91.671 L 271.749 91.683 272.292 89.800 C 272.923 87.611,273.787 84.588,274.426 82.333 C 274.672 81.462,274.931 80.675,274.999 80.583 C 275.068 80.492,275.401 79.442,275.739 78.250 C 276.078 77.058,276.644 75.071,276.997 73.833 C 277.351 72.596,277.949 70.496,278.326 69.167 C 278.702 67.837,279.121 66.487,279.257 66.167 C 279.392 65.846,280.105 63.446,280.842 60.833 C 281.578 58.221,282.221 55.951,282.269 55.789 C 282.352 55.512,282.067 55.498,277.316 55.539 L 272.275 55.583 271.639 58.417 C 271.289 59.975,270.927 61.438,270.835 61.667 C 270.706 61.988,269.428 67.462,268.772 70.500 C 268.670 70.975,267.891 74.490,267.257 77.333 C 267.023 78.387,266.831 79.381,266.832 79.542 C 266.833 79.702,266.772 79.833,266.697 79.833 C 266.622 79.833,266.422 80.415,266.253 81.125 L 265.945 82.417 265.659 81.250 C 265.502 80.608,265.098 78.808,264.762 77.250 C 264.426 75.692,263.845 73.104,263.472 71.500 C 263.099 69.896,262.754 68.396,262.705 68.167 C 262.657 67.938,262.566 67.712,262.503 67.667 C 262.440 67.621,262.305 67.171,262.203 66.667 C 262.100 66.162,261.641 64.137,261.182 62.167 C 260.722 60.196,260.186 57.890,259.989 57.042 L 259.632 55.500 254.400 55.500 C 250.720 55.500,249.167 55.554,249.167 55.682 M285.460 73.583 L 285.417 91.667 297.542 91.667 L 309.667 91.667 309.667 87.847 C 309.667 85.746,309.621 83.909,309.566 83.764 C 309.475 83.529,308.681 83.500,302.316 83.500 L 295.167 83.500 295.167 80.500 L 295.167 77.500 301.083 77.500 L 307.000 77.500 307.000 73.333 L 307.000 69.167 301.083 69.167 L 295.167 69.167 295.167 66.500 L 295.167 63.833 302.083 63.833 L 309.000 63.833 309.000 59.667 L 309.000 55.500 297.251 55.500 L 285.503 55.500 285.460 73.583 M316.167 73.583 L 316.167 91.667 323.292 91.666 C 334.258 91.665,337.035 90.933,340.997 86.995 C 344.383 83.631,345.425 80.421,345.405 73.417 C 345.383 65.942,343.742 61.889,339.583 59.040 C 339.217 58.789,338.891 58.525,338.859 58.453 C 338.777 58.265,337.031 57.405,335.768 56.929 C 332.831 55.824,329.717 55.504,321.875 55.502 L 316.167 55.500 316.167 73.583 M148.876 64.023 C 151.580 64.772,152.870 65.957,153.659 68.417 C 153.865 69.058,154.120 69.764,154.225 69.984 C 154.495 70.549,154.487 76.645,154.215 77.183 C 154.104 77.403,153.896 78.002,153.753 78.513 C 152.906 81.542,150.055 83.537,146.042 83.908 L 144.833 84.020 144.833 73.740 L 144.833 63.461 146.272 63.580 C 147.064 63.646,148.236 63.846,148.876 64.023 M218.000 63.950 C 219.581 64.665,220.086 65.615,219.965 67.647 C 219.783 70.718,218.216 71.812,213.792 71.960 L 211.167 72.047 211.167 67.755 L 211.167 63.463 214.208 63.537 C 216.809 63.600,217.359 63.660,218.000 63.950 M329.738 63.941 C 333.985 65.015,335.419 67.452,335.414 73.583 C 335.408 80.377,332.974 83.462,327.292 83.879 L 326.167 83.962 326.167 73.711 L 326.167 63.461 327.458 63.576 C 328.169 63.639,329.195 63.804,329.738 63.941 " stroke="none" fill="#fcfcfc" fill-rule="evenodd"></path><path id="path1" d="M0.000 73.167 L 0.000 146.333 200.000 146.333 L 400.000 146.333 400.000 73.167 L 400.000 0.000 200.000 0.000 L 0.000 0.000 0.000 73.167 M399.333 73.250 L 399.333 145.667 200.000 145.667 L 0.667 145.667 0.667 73.250 L 0.667 0.833 200.000 0.833 L 399.333 0.833 399.333 73.250 M66.500 35.473 C 66.500 35.550,68.206 37.339,70.292 39.449 L 74.083 43.285 79.417 43.399 C 85.034 43.519,87.042 43.717,89.737 44.418 C 99.412 46.931,107.710 54.700,110.744 64.083 C 113.283 71.933,112.675 80.077,108.996 87.529 C 108.621 88.288,108.253 88.948,108.179 88.996 C 108.104 89.044,107.551 89.833,106.950 90.750 C 104.489 94.504,102.026 96.746,96.500 100.265 C 92.710 102.678,87.678 103.738,79.131 103.924 L 74.178 104.031 70.339 107.878 C 68.228 109.994,66.500 111.786,66.500 111.862 C 66.500 111.938,67.718 112.000,69.206 112.000 L 71.912 112.000 73.914 110.004 L 75.917 108.008 80.167 107.912 C 93.319 107.616,99.839 104.779,108.502 95.583 C 109.061 94.990,110.808 92.559,111.018 92.083 C 111.099 91.900,111.465 91.263,111.832 90.667 C 118.509 79.825,117.699 64.973,109.798 53.373 C 108.877 52.021,104.968 47.993,103.658 47.048 C 103.250 46.753,102.692 46.312,102.417 46.067 C 101.267 45.042,99.115 43.855,94.468 41.683 C 91.473 40.284,87.086 39.570,80.437 39.401 L 75.791 39.282 73.857 37.308 L 71.924 35.333 69.212 35.333 C 67.720 35.333,66.500 35.396,66.500 35.473 M58.833 39.646 C 58.833 39.727,63.277 44.242,68.708 49.681 L 78.583 59.569 81.500 59.689 C 88.469 59.976,92.884 62.893,95.085 68.667 C 95.348 69.354,95.620 69.996,95.691 70.093 C 95.975 70.479,96.203 72.833,96.119 74.500 C 95.730 82.153,88.842 88.032,80.591 87.753 C 79.770 87.726,78.962 87.753,78.796 87.815 C 78.462 87.938,58.833 107.493,58.833 107.702 C 58.833 107.774,60.058 107.833,61.555 107.833 L 64.276 107.833 72.347 99.778 L 80.417 91.722 82.529 91.615 C 87.874 91.344,91.222 89.922,94.760 86.417 C 97.643 83.561,99.833 79.270,99.833 76.478 C 99.833 76.226,99.908 75.973,100.000 75.917 C 100.205 75.790,100.227 71.557,100.023 71.431 C 99.945 71.383,99.830 70.911,99.768 70.383 C 98.812 62.253,90.802 55.670,81.863 55.666 L 80.417 55.666 72.333 47.583 L 64.250 39.500 61.542 39.500 C 60.052 39.500,58.833 39.566,58.833 39.646 M76.501 47.708 C 76.502 47.823,77.311 48.710,78.298 49.681 L 80.093 51.445 82.360 51.554 C 84.917 51.676,87.635 52.149,89.357 52.770 C 90.720 53.261,92.705 54.137,92.830 54.302 C 92.878 54.365,93.592 54.863,94.417 55.409 C 96.420 56.735,97.470 57.638,98.557 58.972 C 99.055 59.583,99.620 60.248,99.812 60.448 C 101.404 62.113,103.183 66.352,103.926 70.250 C 103.996 70.617,104.090 71.104,104.134 71.333 C 104.245 71.911,104.241 75.474,104.128 76.083 C 103.294 80.587,101.610 84.947,100.082 86.558 C 99.895 86.755,99.307 87.457,98.775 88.117 C 95.054 92.738,88.649 95.685,82.328 95.685 L 80.388 95.685 78.444 97.530 C 77.375 98.545,76.500 99.448,76.500 99.536 C 76.500 99.873,85.906 99.595,87.667 99.206 C 90.447 98.591,95.025 96.800,95.411 96.176 C 95.468 96.084,95.755 95.895,96.049 95.755 C 98.152 94.756,102.782 90.273,103.850 88.203 C 103.978 87.954,104.221 87.600,104.389 87.417 C 105.375 86.343,107.065 81.945,107.700 78.805 C 108.957 72.577,107.090 62.616,104.091 59.553 C 103.896 59.354,103.629 58.979,103.498 58.720 C 101.366 54.503,93.971 49.487,87.969 48.186 C 84.964 47.535,76.498 47.182,76.501 47.708 M60.833 73.667 C 60.833 94.542,60.875 99.667,61.045 99.667 C 61.161 99.667,62.061 98.859,63.045 97.872 L 64.833 96.078 64.833 73.661 L 64.833 51.244 63.039 49.455 C 62.052 48.472,61.152 47.667,61.039 47.667 C 60.877 47.667,60.833 53.161,60.833 73.667 M68.500 73.583 C 68.500 89.952,68.542 94.000,68.711 94.000 C 68.827 94.000,69.727 93.193,70.711 92.206 L 72.500 90.411 72.500 73.677 L 72.500 56.944 70.587 55.055 C 69.535 54.016,68.635 53.167,68.587 53.167 C 68.539 53.167,68.500 62.354,68.500 73.583 M144.912 73.750 C 144.912 79.433,144.933 81.782,144.958 78.970 C 144.984 76.158,144.984 71.508,144.958 68.637 C 144.933 65.766,144.912 68.067,144.912 73.750 " stroke="none" fill="#72a53f" fill-rule="evenodd"></path><path id="path2" d="" stroke="none" fill="#c810094" fill-rule="evenodd"></path><path id="path3" d="" stroke="none" fill="#c810094" fill-rule="evenodd"></path><path id="path4" d="" stroke="none" fill="#c810094" fill-rule="evenodd"></path></g></svg>