<svg id="svg" version="1.1" xmlns="http://www.w3.org/2000/svg" xmlns:xlink="http://www.w3.org/1999/xlink" width="400" height="400" viewBox="0, 0, 400,400"><g id="svgg"><path id="path0" d="M149.489 100.846 L 143.141 101.015 152.873 110.713 L 162.606 120.410 171.235 120.680 C 175.981 120.828,181.997 120.979,184.602 121.016 C 189.069 121.078,191.494 121.239,194.247 121.655 C 194.898 121.753,195.736 121.838,196.108 121.843 C 196.481 121.848,197.318 121.994,197.970 122.167 C 198.621 122.341,199.763 122.579,200.508 122.696 C 201.252 122.814,202.014 123.004,202.200 123.120 C 202.585 123.361,202.816 123.428,204.230 123.710 C 204.788 123.822,205.474 123.999,205.753 124.105 C 206.032 124.211,206.565 124.353,206.937 124.420 C 207.310 124.488,207.843 124.642,208.122 124.763 C 208.759 125.040,208.760 125.041,209.983 125.376 C 210.541 125.529,211.078 125.774,211.175 125.920 C 211.272 126.066,211.729 126.260,212.190 126.350 C 212.651 126.441,213.669 126.831,214.451 127.217 C 215.233 127.603,216.047 127.919,216.260 127.919 C 216.473 127.919,217.089 128.234,217.630 128.619 C 218.170 129.004,218.613 129.221,218.613 129.102 C 218.613 128.983,218.852 129.125,219.144 129.417 C 219.437 129.710,219.905 129.949,220.184 129.949 C 220.739 129.949,223.584 131.521,224.315 132.232 C 224.566 132.476,225.289 132.892,225.922 133.156 C 226.555 133.421,227.073 133.806,227.073 134.013 C 227.073 134.219,227.202 134.309,227.360 134.211 C 227.518 134.113,227.968 134.333,228.361 134.699 C 228.754 135.064,229.217 135.364,229.392 135.364 C 229.566 135.364,230.189 135.813,230.776 136.361 C 231.363 136.910,231.874 137.344,231.912 137.327 C 232.028 137.272,233.874 138.879,234.613 139.679 C 235.000 140.097,235.470 140.440,235.658 140.440 C 235.845 140.440,236.673 141.163,237.497 142.047 C 238.321 142.931,238.871 143.426,238.720 143.147 C 238.568 142.868,239.007 143.168,239.695 143.814 C 240.384 144.460,240.948 145.192,240.948 145.441 C 240.948 145.691,241.100 145.800,241.286 145.685 C 241.472 145.570,241.624 145.603,241.624 145.757 C 241.624 146.037,243.862 148.633,245.504 150.257 C 245.976 150.725,246.362 151.280,246.362 151.490 C 246.362 151.701,246.591 151.961,246.870 152.068 C 247.149 152.175,247.377 152.489,247.377 152.764 C 247.377 153.040,247.568 153.388,247.801 153.536 C 248.385 153.909,251.746 158.756,252.330 160.068 C 252.455 160.347,252.785 160.842,253.065 161.168 C 253.345 161.493,253.436 161.762,253.267 161.765 C 253.099 161.768,253.162 161.897,253.407 162.053 C 253.652 162.208,253.884 162.548,253.924 162.809 C 253.963 163.069,254.131 163.500,254.297 163.766 C 255.157 165.144,257.448 169.850,257.612 170.573 C 257.844 171.602,258.650 173.714,258.897 173.942 C 259.062 174.095,260.001 176.783,260.109 177.411 C 260.133 177.551,260.183 177.703,260.220 177.750 C 260.258 177.796,260.344 178.063,260.412 178.342 C 260.725 179.628,260.912 180.342,261.431 182.234 C 261.737 183.350,262.125 185.102,262.292 186.125 C 262.460 187.149,262.687 188.519,262.797 189.171 C 263.886 195.607,264.021 204.526,263.133 211.337 C 262.726 214.453,262.546 215.668,262.388 216.359 C 262.296 216.761,262.147 217.623,262.056 218.274 C 261.965 218.926,261.803 219.687,261.696 219.966 C 261.589 220.245,261.444 220.917,261.374 221.458 C 261.304 221.999,261.105 222.612,260.932 222.820 C 260.760 223.028,260.564 223.607,260.497 224.107 C 260.430 224.607,260.268 225.124,260.137 225.255 C 260.006 225.386,259.898 225.735,259.896 226.029 C 259.895 226.324,259.681 226.974,259.421 227.473 C 259.160 227.972,258.841 228.864,258.711 229.454 C 258.582 230.044,258.155 231.235,257.764 232.100 C 257.372 232.964,257.083 233.786,257.122 233.926 C 257.160 234.065,257.030 234.179,256.833 234.179 C 256.636 234.179,256.569 234.332,256.684 234.518 C 256.799 234.704,256.731 234.856,256.534 234.856 C 256.337 234.856,256.192 234.970,256.213 235.110 C 256.289 235.638,255.745 236.887,255.440 236.887 C 255.264 236.887,255.207 237.027,255.313 237.198 C 255.419 237.369,255.299 237.716,255.046 237.969 C 254.793 238.221,254.407 238.970,254.189 239.633 C 253.970 240.295,253.452 241.201,253.038 241.646 C 252.623 242.091,252.316 242.534,252.355 242.632 C 252.393 242.729,252.089 243.248,251.678 243.784 C 251.267 244.320,250.931 244.886,250.931 245.042 C 250.931 245.198,250.664 245.636,250.338 246.017 C 250.013 246.397,249.746 246.789,249.746 246.888 C 249.746 246.987,249.365 247.479,248.900 247.981 C 248.435 248.483,248.054 249.049,248.054 249.238 C 248.054 249.428,247.750 249.774,247.377 250.006 C 247.005 250.239,246.701 250.605,246.701 250.821 C 246.701 251.222,246.540 251.429,244.641 253.469 C 244.034 254.120,243.536 254.729,243.533 254.822 C 243.527 255.069,236.210 262.321,236.210 262.080 C 236.210 261.968,235.810 262.352,235.322 262.932 C 234.833 263.513,234.352 263.906,234.252 263.807 C 234.152 263.707,233.858 263.929,233.598 264.300 C 233.338 264.671,232.907 264.975,232.640 264.975 C 232.373 264.975,231.964 265.279,231.732 265.651 C 231.499 266.024,231.117 266.328,230.883 266.328 C 230.649 266.328,230.457 266.457,230.457 266.613 C 230.457 266.770,229.924 267.186,229.272 267.536 C 228.621 267.887,228.088 268.292,228.088 268.436 C 228.088 268.579,227.860 268.697,227.580 268.697 C 227.301 268.697,227.073 268.849,227.073 269.036 C 227.073 269.222,226.844 269.374,226.565 269.374 C 226.286 269.374,226.058 269.523,226.058 269.706 C 226.058 269.888,225.677 270.133,225.212 270.250 C 224.746 270.367,224.365 270.607,224.365 270.784 C 224.365 270.961,224.236 271.026,224.078 270.928 C 223.920 270.831,223.470 271.050,223.077 271.416 C 222.685 271.782,222.129 272.081,221.842 272.081 C 221.555 272.081,221.320 272.198,221.320 272.340 C 221.320 272.627,218.590 273.930,218.190 273.834 C 218.050 273.801,217.936 273.935,217.936 274.132 C 217.936 274.329,217.783 274.396,217.597 274.281 C 217.411 274.166,217.259 274.258,217.259 274.487 C 217.259 274.715,217.163 274.806,217.047 274.689 C 216.930 274.573,216.359 274.731,215.778 275.041 C 215.196 275.351,214.607 275.573,214.467 275.535 C 214.327 275.497,214.213 275.618,214.213 275.804 C 214.213 275.990,213.918 276.142,213.556 276.142 C 213.195 276.142,212.804 276.297,212.687 276.486 C 212.570 276.675,212.343 276.749,212.183 276.650 C 212.022 276.551,211.794 276.627,211.675 276.819 C 211.556 277.011,211.317 277.081,211.144 276.974 C 210.971 276.867,210.829 276.909,210.829 277.067 C 210.829 277.289,208.851 278.020,207.445 278.316 C 207.352 278.336,207.124 278.437,206.937 278.540 C 206.751 278.644,206.151 278.757,205.603 278.791 C 205.055 278.825,204.501 279.024,204.372 279.233 C 204.242 279.442,203.978 279.515,203.784 279.395 C 203.590 279.275,203.329 279.342,203.204 279.544 C 203.079 279.746,202.769 279.831,202.515 279.733 C 202.260 279.636,201.961 279.704,201.849 279.885 C 201.737 280.066,201.533 280.145,201.396 280.060 C 201.259 279.975,200.546 280.056,199.812 280.239 C 199.078 280.422,198.020 280.639,197.462 280.723 C 196.904 280.806,195.990 280.951,195.431 281.044 C 194.873 281.138,193.807 281.287,193.063 281.376 C 192.318 281.466,191.328 281.632,190.863 281.745 C 190.398 281.859,184.230 282.029,177.157 282.123 C 170.085 282.217,163.841 282.319,163.283 282.348 C 162.435 282.394,160.632 284.020,152.343 292.217 L 142.418 302.030 149.128 302.200 L 155.838 302.369 161.083 297.241 L 166.328 292.113 168.730 291.901 C 170.051 291.784,175.381 291.604,180.575 291.501 C 191.002 291.295,191.928 291.254,193.401 290.938 C 193.959 290.818,195.254 290.638,196.277 290.538 C 197.301 290.438,198.519 290.270,198.985 290.164 C 199.450 290.058,200.364 289.893,201.015 289.797 C 201.667 289.701,202.858 289.405,203.663 289.139 C 204.468 288.872,205.257 288.735,205.416 288.834 C 205.576 288.932,205.808 288.848,205.933 288.646 C 206.058 288.444,206.373 288.360,206.633 288.460 C 206.894 288.560,207.107 288.478,207.107 288.278 C 207.107 288.078,207.330 288.000,207.603 288.105 C 207.877 288.210,208.197 288.139,208.314 287.949 C 208.432 287.758,208.724 287.677,208.963 287.769 C 209.202 287.860,209.720 287.710,210.113 287.434 C 210.507 287.158,210.829 287.036,210.829 287.163 C 210.829 287.289,211.051 287.208,211.322 286.984 C 211.593 286.759,211.951 286.659,212.118 286.762 C 212.285 286.865,212.710 286.731,213.064 286.464 C 213.417 286.196,213.962 285.973,214.275 285.967 C 214.588 285.961,215.573 285.587,216.463 285.135 C 217.354 284.684,218.202 284.388,218.347 284.478 C 218.493 284.569,218.613 284.481,218.613 284.284 C 218.613 284.087,218.807 283.926,219.045 283.926 C 219.283 283.926,220.642 283.330,222.065 282.602 C 223.488 281.875,224.740 281.367,224.847 281.474 C 224.954 281.582,225.042 281.492,225.042 281.275 C 225.042 281.058,225.347 280.880,225.719 280.880 C 226.091 280.880,226.396 280.737,226.396 280.563 C 226.396 280.389,226.929 280.054,227.580 279.819 C 228.232 279.583,228.765 279.269,228.765 279.120 C 228.765 278.971,228.993 278.849,229.272 278.849 C 229.552 278.849,229.780 278.672,229.780 278.455 C 229.780 278.237,229.877 278.157,229.997 278.276 C 230.116 278.395,230.763 278.072,231.435 277.557 C 232.760 276.541,232.907 276.437,236.498 273.977 C 237.828 273.066,238.917 272.165,238.917 271.975 C 238.917 271.785,239.008 271.721,239.120 271.833 C 239.232 271.944,239.765 271.584,240.304 271.032 C 240.844 270.479,241.286 270.103,241.286 270.196 C 241.286 270.289,242.138 269.571,243.180 268.600 C 246.178 265.808,249.408 262.588,249.408 262.391 C 249.408 262.292,249.941 261.693,250.592 261.061 C 251.244 260.428,251.777 259.823,251.777 259.716 C 251.777 259.609,252.267 259.074,252.867 258.526 C 253.467 257.978,253.848 257.530,253.713 257.530 C 253.579 257.530,253.735 257.248,254.061 256.904 C 255.157 255.745,255.838 254.817,255.838 254.480 C 255.838 254.296,255.954 254.146,256.096 254.146 C 256.238 254.146,256.504 253.858,256.688 253.507 C 256.872 253.155,257.701 251.899,258.530 250.715 C 259.360 249.531,259.994 248.503,259.940 248.430 C 259.885 248.358,259.983 248.206,260.157 248.092 C 260.331 247.978,261.442 245.981,262.626 243.655 C 263.810 241.328,264.878 239.349,265.000 239.255 C 265.122 239.162,265.327 238.706,265.456 238.240 C 265.780 237.073,266.772 234.723,267.028 234.518 C 267.144 234.425,267.340 233.936,267.463 233.433 C 267.586 232.929,267.864 232.092,268.079 231.572 C 268.295 231.052,268.503 230.512,268.542 230.372 C 268.581 230.233,268.655 230.004,268.706 229.865 C 268.758 229.725,268.836 229.459,268.879 229.272 C 268.922 229.086,268.994 228.820,269.039 228.680 C 269.084 228.541,269.158 228.274,269.205 228.088 C 269.251 227.902,269.321 227.712,269.359 227.665 C 269.398 227.618,269.503 227.127,269.593 226.574 C 269.682 226.020,269.884 225.411,270.040 225.220 C 270.197 225.029,270.416 224.290,270.529 223.577 C 270.641 222.865,270.891 221.986,271.084 221.624 C 271.277 221.263,271.359 220.844,271.266 220.693 C 271.173 220.543,271.318 219.594,271.587 218.585 C 271.857 217.577,272.166 215.914,272.274 214.890 C 272.381 213.866,272.534 212.572,272.614 212.014 C 273.387 206.566,273.372 196.184,272.583 190.525 C 272.124 187.225,271.905 185.878,271.593 184.433 C 271.177 182.509,271.045 181.840,270.865 180.765 C 270.761 180.143,270.466 179.039,270.209 178.312 C 269.952 177.584,269.830 176.988,269.938 176.988 C 270.046 176.988,269.944 176.760,269.712 176.481 C 269.481 176.201,269.374 175.973,269.476 175.973 C 269.578 175.973,269.352 175.097,268.975 174.027 C 268.597 172.957,268.219 171.704,268.134 171.242 C 268.049 170.781,267.857 170.324,267.707 170.227 C 267.475 170.077,267.015 168.989,266.810 168.105 C 266.778 167.965,266.713 167.775,266.667 167.682 C 266.620 167.589,266.557 167.398,266.526 167.259 C 266.495 167.119,266.206 166.512,265.884 165.909 C 265.563 165.306,265.340 164.771,265.391 164.720 C 265.525 164.583,263.162 159.934,262.837 159.695 C 262.685 159.584,262.527 159.264,262.486 158.985 C 262.445 158.706,262.117 158.036,261.757 157.496 C 261.396 156.956,261.135 156.400,261.177 156.261 C 261.218 156.121,261.091 156.007,260.894 156.007 C 260.697 156.007,260.617 155.875,260.717 155.714 C 260.816 155.552,260.597 155.148,260.229 154.815 C 259.861 154.482,259.560 154.028,259.560 153.806 C 259.560 153.585,259.255 153.052,258.883 152.623 C 258.511 152.193,258.206 151.737,258.206 151.607 C 258.206 151.401,257.804 150.859,256.521 149.337 C 256.331 149.113,256.176 148.778,256.176 148.593 C 256.176 148.408,255.983 148.135,255.748 147.986 C 255.204 147.642,252.453 144.316,252.453 144.002 C 252.453 143.733,251.572 142.789,246.993 138.156 C 243.242 134.361,240.722 131.980,240.456 131.980 C 240.251 131.980,239.338 131.219,238.063 129.984 C 237.602 129.538,237.220 129.310,237.215 129.477 C 237.209 129.644,237.049 129.514,236.860 129.188 C 236.670 128.862,236.322 128.596,236.088 128.596 C 235.853 128.596,235.363 128.329,234.999 128.003 C 234.635 127.678,233.426 126.802,232.312 126.058 C 231.199 125.313,230.237 124.589,230.174 124.448 C 230.112 124.307,229.921 124.278,229.751 124.383 C 229.581 124.489,229.442 124.404,229.442 124.196 C 229.442 123.988,229.317 123.895,229.164 123.990 C 229.011 124.084,228.631 123.865,228.321 123.502 C 228.010 123.139,227.450 122.843,227.076 122.843 C 226.702 122.843,226.396 122.690,226.396 122.504 C 226.396 122.318,226.168 122.166,225.888 122.166 C 225.609 122.166,225.381 121.988,225.381 121.771 C 225.381 121.554,225.286 121.470,225.171 121.586 C 225.056 121.701,224.739 121.573,224.467 121.301 C 224.195 121.029,223.833 120.892,223.661 120.998 C 223.490 121.104,223.350 121.040,223.350 120.855 C 223.350 120.565,222.284 120.033,221.602 119.983 C 221.478 119.974,221.262 119.852,221.122 119.712 C 220.983 119.573,220.589 119.459,220.248 119.459 C 219.907 119.459,219.628 119.297,219.628 119.100 C 219.628 118.903,219.475 118.836,219.289 118.951 C 219.103 119.066,218.951 118.999,218.951 118.802 C 218.951 118.605,218.837 118.467,218.697 118.497 C 218.369 118.566,217.340 118.199,216.132 117.580 C 215.605 117.310,214.912 117.090,214.592 117.090 C 214.272 117.090,213.827 116.907,213.604 116.684 C 213.381 116.460,213.198 116.403,213.198 116.556 C 213.198 116.709,213.008 116.684,212.775 116.501 C 212.542 116.318,211.895 116.045,211.337 115.895 C 209.817 115.486,209.820 115.487,209.729 115.414 C 209.683 115.377,209.416 115.299,209.137 115.241 C 208.858 115.183,207.716 114.862,206.599 114.527 C 204.305 113.838,203.932 113.746,202.615 113.542 C 202.099 113.463,201.545 113.316,201.385 113.217 C 201.050 113.010,197.022 112.335,195.262 112.191 C 194.611 112.137,193.164 111.991,192.047 111.865 C 188.655 111.483,183.995 111.326,175.127 111.293 L 166.667 111.261 161.252 105.969 L 155.838 100.677 149.489 100.846 M132.932 122.081 C 138.713 127.991,150.372 139.745,158.842 148.202 L 174.242 163.579 177.561 163.662 C 179.386 163.707,182.479 163.840,184.433 163.958 C 186.387 164.075,188.291 164.167,188.663 164.162 C 189.036 164.157,189.949 164.316,190.692 164.515 C 191.436 164.714,192.350 164.933,192.723 165.002 C 194.068 165.253,196.277 165.973,196.277 166.161 C 196.277 166.267,196.606 166.378,197.008 166.408 C 197.411 166.439,197.846 166.636,197.977 166.848 C 198.108 167.059,198.350 167.218,198.515 167.201 C 198.851 167.166,201.766 168.580,202.030 168.905 C 202.124 169.020,202.542 169.220,202.961 169.351 C 203.380 169.482,203.723 169.731,203.723 169.904 C 203.723 170.078,203.956 170.220,204.241 170.220 C 204.526 170.220,204.846 170.448,204.953 170.726 C 205.060 171.004,205.271 171.155,205.423 171.061 C 205.715 170.881,212.859 177.780,212.860 178.242 C 212.860 178.390,213.392 179.109,214.042 179.839 C 214.692 180.569,215.158 181.233,215.077 181.313 C 214.997 181.394,215.221 181.771,215.576 182.152 C 215.930 182.532,216.147 182.962,216.057 183.107 C 215.968 183.252,216.065 183.476,216.273 183.605 C 216.573 183.791,217.526 185.604,217.774 186.464 C 217.801 186.557,218.001 187.062,218.218 187.585 C 218.435 188.109,218.613 188.671,218.613 188.832 C 218.613 188.994,218.785 189.556,218.996 190.079 C 219.207 190.603,219.437 191.475,219.507 192.016 C 219.577 192.558,219.764 193.167,219.924 193.370 C 220.620 194.258,221.073 202.681,220.579 205.584 C 220.390 206.701,220.176 208.071,220.105 208.629 C 219.937 209.944,219.736 210.976,219.629 211.083 C 219.582 211.129,219.516 211.282,219.482 211.421 C 219.448 211.561,219.295 212.203,219.143 212.848 C 218.990 213.494,218.741 214.255,218.590 214.540 C 218.439 214.826,217.752 216.277,217.063 217.766 C 216.374 219.255,215.678 220.525,215.517 220.587 C 215.356 220.650,215.311 220.841,215.417 221.013 C 215.523 221.184,215.373 221.416,215.083 221.527 C 214.793 221.638,214.640 221.865,214.743 222.032 C 214.846 222.199,214.769 222.335,214.572 222.335 C 214.374 222.335,214.213 222.558,214.213 222.831 C 214.213 223.103,213.909 223.489,213.536 223.689 C 213.164 223.888,212.860 224.271,212.860 224.540 C 212.860 225.376,205.768 232.149,204.893 232.149 C 204.686 232.149,204.164 232.525,203.732 232.984 C 203.301 233.444,202.817 233.740,202.658 233.641 C 202.499 233.543,202.369 233.587,202.369 233.738 C 202.369 233.890,201.569 234.371,200.592 234.808 C 199.615 235.244,198.071 235.962,197.161 236.404 C 196.250 236.845,195.375 237.125,195.215 237.026 C 195.055 236.928,194.924 237.021,194.924 237.233 C 194.924 237.446,194.734 237.554,194.501 237.474 C 194.268 237.394,193.240 237.616,192.217 237.967 C 189.978 238.734,188.343 238.926,182.572 239.100 C 180.152 239.174,177.229 239.311,176.075 239.406 L 173.978 239.579 147.879 265.644 L 121.781 291.709 128.631 291.709 L 135.482 291.709 156.800 270.305 C 173.250 253.788,178.317 248.888,178.991 248.846 C 179.472 248.816,181.540 248.706,183.587 248.602 C 186.976 248.429,189.226 248.233,191.540 247.910 C 192.005 247.845,193.269 247.547,194.348 247.246 C 195.427 246.946,196.608 246.701,196.971 246.701 C 197.334 246.701,197.631 246.548,197.631 246.362 C 197.631 246.176,197.745 246.048,197.885 246.078 C 198.025 246.108,198.567 245.956,199.091 245.740 C 199.615 245.524,200.339 245.347,200.699 245.347 C 201.059 245.347,201.354 245.195,201.354 245.008 C 201.354 244.822,201.646 244.670,202.002 244.670 C 202.359 244.670,202.702 244.556,202.764 244.416 C 202.856 244.208,205.151 242.972,205.753 242.807 C 206.400 242.629,207.783 241.809,207.783 241.603 C 207.783 241.465,208.240 241.193,208.799 240.998 C 209.357 240.804,209.814 240.459,209.814 240.232 C 209.814 240.005,209.899 239.905,210.004 240.010 C 210.109 240.114,210.603 239.816,211.104 239.347 C 211.604 238.878,212.585 238.131,213.283 237.686 C 213.981 237.242,214.552 236.738,214.552 236.567 C 214.552 236.396,214.858 236.158,215.233 236.039 C 215.608 235.920,215.827 235.680,215.719 235.506 C 215.611 235.331,215.829 235.076,216.202 234.938 C 216.575 234.800,216.927 234.535,216.985 234.349 C 217.043 234.162,217.195 234.045,217.323 234.088 C 217.451 234.131,217.652 233.864,217.769 233.496 C 217.886 233.127,218.089 232.826,218.221 232.826 C 218.352 232.826,219.125 231.912,219.938 230.795 C 220.752 229.679,221.556 228.765,221.727 228.765 C 221.897 228.765,221.942 228.613,221.827 228.426 C 221.712 228.240,221.783 228.088,221.985 228.088 C 222.187 228.088,222.507 227.745,222.696 227.327 C 223.176 226.267,223.803 225.212,224.336 224.571 C 224.584 224.272,224.654 224.025,224.492 224.022 C 224.329 224.019,224.352 223.905,224.542 223.768 C 224.949 223.475,225.863 221.601,225.778 221.235 C 225.746 221.096,225.871 220.981,226.058 220.981 C 226.244 220.981,226.396 220.686,226.396 220.325 C 226.396 219.963,226.548 219.574,226.734 219.459 C 226.920 219.344,227.073 219.040,227.073 218.784 C 227.073 218.528,227.250 217.889,227.467 217.366 C 227.684 216.842,227.894 216.299,227.933 216.159 C 227.972 216.019,228.041 215.829,228.088 215.736 C 228.135 215.643,228.205 215.453,228.244 215.313 C 228.283 215.173,228.413 214.831,228.531 214.552 C 228.856 213.788,229.468 210.857,229.663 209.137 C 229.757 208.299,229.940 206.853,230.069 205.922 C 230.462 203.089,230.268 198.185,229.553 192.893 C 229.383 191.632,229.198 190.694,229.121 190.694 C 229.015 190.694,228.714 189.413,228.664 188.748 C 228.640 188.422,228.493 188.156,228.339 188.156 C 228.185 188.156,228.089 187.965,228.127 187.733 C 228.164 187.500,228.095 187.043,227.972 186.717 C 227.721 186.050,227.385 185.026,227.333 184.772 C 227.314 184.679,226.943 183.895,226.509 183.030 C 226.074 182.166,225.719 181.279,225.719 181.060 C 225.719 180.841,225.489 180.432,225.208 180.152 C 224.927 179.871,224.784 179.501,224.890 179.330 C 224.996 179.159,224.949 179.019,224.786 179.019 C 224.623 179.019,224.131 178.371,223.692 177.580 C 223.253 176.789,222.539 175.671,222.107 175.095 C 221.674 174.519,221.320 173.955,221.320 173.841 C 221.320 173.728,220.977 173.264,220.558 172.811 C 220.140 172.358,219.416 171.494,218.951 170.892 C 218.005 169.668,214.798 166.440,213.241 165.144 C 212.681 164.679,211.826 163.955,211.340 163.536 C 210.854 163.118,210.235 162.775,209.966 162.775 C 209.696 162.775,209.475 162.623,209.475 162.437 C 209.475 162.250,209.317 162.098,209.123 162.098 C 208.721 162.098,206.657 160.706,206.485 160.319 C 206.423 160.179,206.252 160.137,206.106 160.228 C 205.960 160.318,205.493 160.091,205.068 159.722 C 204.643 159.354,204.205 159.041,204.094 159.027 C 203.387 158.936,202.679 158.686,201.184 157.999 C 200.254 157.571,199.378 157.253,199.239 157.291 C 199.099 157.329,198.985 157.192,198.985 156.986 C 198.985 156.780,198.756 156.699,198.477 156.806 C 198.198 156.913,197.970 156.886,197.970 156.747 C 197.970 156.607,197.566 156.459,197.073 156.419 C 196.580 156.378,195.978 156.179,195.734 155.977 C 195.491 155.775,195.143 155.702,194.962 155.814 C 194.781 155.926,194.535 155.861,194.416 155.668 C 194.297 155.476,194.088 155.388,193.951 155.473 C 193.814 155.558,193.101 155.476,192.367 155.292 C 189.547 154.586,187.044 154.347,181.820 154.286 L 178.023 154.242 156.754 132.789 L 135.484 111.337 128.954 111.337 L 122.423 111.337 132.932 122.081 M173.696 137.640 L 178.541 142.455 182.925 142.440 C 185.337 142.431,188.071 142.519,189.002 142.634 C 189.932 142.749,191.074 142.876,191.540 142.917 C 192.005 142.957,192.586 143.117,192.831 143.272 C 193.076 143.427,193.357 143.473,193.454 143.376 C 193.552 143.278,194.295 143.398,195.106 143.642 C 195.917 143.886,196.650 144.016,196.735 143.931 C 196.945 143.721,201.755 145.161,202.284 145.593 C 202.517 145.782,202.707 145.812,202.707 145.659 C 202.707 145.506,202.890 145.563,203.113 145.787 C 203.337 146.010,203.870 146.193,204.298 146.193 C 204.726 146.193,205.076 146.354,205.076 146.551 C 205.076 146.748,205.228 146.816,205.415 146.701 C 205.601 146.585,205.753 146.634,205.753 146.807 C 205.753 146.981,206.232 147.219,206.818 147.336 C 207.403 147.454,208.622 148.004,209.525 148.560 C 210.428 149.116,211.168 149.477,211.168 149.363 C 211.168 149.249,211.412 149.359,211.711 149.607 C 212.396 150.175,213.397 150.766,214.805 151.434 C 215.410 151.720,215.905 152.114,215.905 152.309 C 215.905 152.503,216.059 152.568,216.246 152.452 C 216.433 152.336,216.678 152.479,216.790 152.770 C 216.902 153.061,217.197 153.299,217.447 153.299 C 217.698 153.299,218.057 153.566,218.247 153.892 C 218.437 154.217,218.597 154.371,218.602 154.233 C 218.615 153.927,219.716 154.784,221.216 156.267 C 221.832 156.875,222.335 157.263,222.335 157.129 C 222.335 156.994,223.414 158.019,224.732 159.407 C 226.050 160.794,227.573 162.394,228.116 162.961 C 228.659 163.529,229.103 164.120,229.103 164.275 C 229.103 164.430,229.431 164.841,229.832 165.189 C 230.233 165.536,230.444 165.821,230.302 165.821 C 230.160 165.821,230.403 166.120,230.842 166.486 C 231.282 166.852,231.521 167.157,231.374 167.163 C 231.227 167.169,231.493 167.592,231.966 168.101 C 232.439 168.611,232.826 169.221,232.826 169.455 C 232.826 169.690,232.978 169.882,233.164 169.882 C 233.350 169.882,233.503 170.110,233.503 170.389 C 233.503 170.668,233.664 170.897,233.861 170.897 C 234.058 170.897,234.125 171.049,234.010 171.235 C 233.895 171.421,233.939 171.574,234.108 171.574 C 234.277 171.574,234.700 172.221,235.049 173.012 C 235.398 173.803,235.792 174.529,235.925 174.626 C 236.339 174.927,237.524 177.930,237.313 178.142 C 237.202 178.252,237.260 178.342,237.440 178.342 C 237.818 178.342,239.109 181.684,238.976 182.318 C 238.927 182.551,239.021 182.741,239.184 182.741 C 239.348 182.741,239.498 182.931,239.518 183.164 C 239.579 183.870,239.770 184.584,239.996 184.943 C 240.184 185.244,240.501 186.645,240.723 188.156 C 240.764 188.435,240.897 188.822,241.018 189.016 C 241.239 189.368,241.430 190.581,241.872 194.416 C 242.187 197.154,242.159 206.865,241.830 208.968 C 241.684 209.898,241.571 210.957,241.579 211.321 C 241.586 211.685,241.474 212.142,241.330 212.336 C 241.186 212.531,241.037 213.202,240.999 213.828 C 240.962 214.453,240.777 215.253,240.589 215.604 C 240.401 215.956,240.325 216.244,240.420 216.244 C 240.515 216.244,240.430 216.662,240.231 217.174 C 240.033 217.686,239.807 218.438,239.729 218.844 C 239.652 219.251,239.292 220.276,238.929 221.122 C 238.567 221.968,238.105 223.273,237.904 224.021 C 237.702 224.769,237.391 225.381,237.212 225.381 C 237.033 225.381,236.887 225.657,236.887 225.994 C 236.887 226.332,236.277 227.618,235.533 228.852 C 234.788 230.087,234.179 231.257,234.179 231.454 C 234.179 231.650,234.027 231.810,233.841 231.810 C 233.655 231.810,233.534 231.925,233.572 232.064 C 233.696 232.516,232.482 234.518,232.084 234.518 C 231.871 234.518,231.796 234.616,231.916 234.736 C 232.035 234.856,231.680 235.503,231.126 236.174 C 230.571 236.845,229.814 237.775,229.442 238.240 C 227.569 240.588,223.823 244.670,223.543 244.670 C 223.388 244.670,222.607 245.340,220.109 247.616 C 219.658 248.026,219.289 248.276,219.289 248.170 C 219.289 248.065,218.990 248.339,218.624 248.778 C 218.258 249.217,217.953 249.478,217.947 249.357 C 217.941 249.235,217.501 249.543,216.969 250.039 C 216.437 250.536,215.181 251.357,214.177 251.862 C 213.173 252.368,210.925 253.549,209.181 254.487 C 207.437 255.425,205.762 256.234,205.458 256.285 C 205.155 256.337,204.576 256.560,204.171 256.783 C 203.766 257.006,203.081 257.253,202.648 257.333 C 202.215 257.414,201.823 257.510,201.777 257.547 C 201.730 257.584,201.552 257.633,201.382 257.657 C 201.211 257.680,200.957 257.813,200.818 257.953 C 200.678 258.092,200.142 258.206,199.625 258.206 C 199.109 258.206,198.586 258.369,198.463 258.568 C 198.340 258.767,198.041 258.853,197.799 258.760 C 197.557 258.668,197.263 258.687,197.147 258.804 C 196.922 259.028,196.207 259.197,195.093 259.287 C 194.721 259.317,194.260 259.457,194.068 259.599 C 193.461 260.049,188.367 260.463,182.023 260.577 L 178.091 260.648 173.394 265.362 L 168.697 270.076 179.865 269.926 C 186.007 269.844,191.489 269.696,192.047 269.598 C 192.606 269.500,193.672 269.321,194.416 269.199 C 195.161 269.078,196.379 268.830,197.124 268.649 C 197.868 268.467,198.782 268.256,199.154 268.180 C 200.296 267.947,201.176 267.737,201.354 267.656 C 201.447 267.614,201.675 267.549,201.861 267.513 C 202.047 267.477,202.428 267.360,202.707 267.252 C 204.170 266.691,206.970 265.859,207.191 265.920 C 207.331 265.958,207.445 265.838,207.445 265.651 C 207.445 265.465,207.650 265.313,207.901 265.313 C 208.151 265.313,208.798 265.094,209.339 264.826 C 210.866 264.069,212.327 263.506,212.606 263.566 C 212.745 263.596,212.860 263.479,212.860 263.305 C 212.860 262.984,214.174 262.417,214.636 262.539 C 214.776 262.576,214.890 262.453,214.890 262.267 C 214.890 262.081,215.132 261.929,215.429 261.929 C 215.725 261.929,216.355 261.624,216.828 261.252 C 217.301 260.880,217.873 260.575,218.098 260.575 C 218.323 260.575,218.783 260.271,219.120 259.898 C 219.457 259.526,219.914 259.222,220.135 259.222 C 220.357 259.222,220.810 258.921,221.143 258.553 C 221.476 258.185,221.873 257.961,222.025 258.055 C 222.177 258.149,222.473 257.904,222.684 257.510 C 222.894 257.117,223.140 256.868,223.229 256.957 C 223.318 257.046,223.953 256.603,224.640 255.972 C 225.326 255.342,226.073 254.825,226.299 254.824 C 226.526 254.823,226.874 254.518,227.073 254.146 C 227.272 253.773,227.595 253.469,227.790 253.469 C 228.170 253.469,234.635 246.995,235.603 245.645 C 236.645 244.193,238.053 242.475,238.404 242.229 C 238.593 242.096,238.748 241.824,238.748 241.624 C 238.748 241.425,238.900 241.153,239.087 241.020 C 239.273 240.887,239.640 240.362,239.902 239.853 C 240.165 239.345,240.621 238.651,240.917 238.312 C 241.675 237.444,242.287 236.479,242.520 235.787 C 242.629 235.461,242.841 235.195,242.991 235.195 C 243.140 235.195,243.363 234.738,243.486 234.179 C 243.608 233.621,243.858 233.164,244.040 233.164 C 244.222 233.164,244.285 233.024,244.179 232.853 C 244.074 232.682,244.210 232.319,244.482 232.047 C 244.754 231.775,244.882 231.458,244.767 231.343 C 244.652 231.228,244.744 231.134,244.972 231.134 C 245.200 231.134,245.293 230.981,245.178 230.795 C 245.063 230.609,245.130 230.457,245.327 230.457 C 245.524 230.457,245.661 230.343,245.632 230.203 C 245.567 229.897,245.841 229.182,246.952 226.758 C 247.415 225.747,247.827 224.757,247.868 224.558 C 247.989 223.967,249.099 220.177,249.313 219.628 C 249.753 218.494,250.106 217.022,250.449 214.890 C 250.613 213.866,250.837 212.648,250.947 212.183 C 251.798 208.555,251.805 195.342,250.958 190.863 C 250.905 190.584,250.763 189.822,250.643 189.171 C 250.522 188.519,250.334 187.530,250.226 186.971 C 250.117 186.413,249.977 185.651,249.915 185.279 C 249.853 184.907,249.771 184.564,249.732 184.518 C 249.693 184.471,249.632 184.319,249.596 184.179 C 249.560 184.040,249.333 183.240,249.091 182.403 C 248.850 181.565,248.617 180.728,248.574 180.541 C 248.464 180.072,248.068 179.044,247.507 177.777 C 247.246 177.187,246.939 176.235,246.824 175.662 C 246.710 175.088,246.483 174.619,246.320 174.619 C 246.157 174.619,246.024 174.406,246.024 174.146 C 246.024 173.885,245.418 172.553,244.678 171.185 C 243.938 169.817,243.062 168.164,242.732 167.513 C 242.402 166.861,242.018 166.277,241.878 166.215 C 241.739 166.153,241.624 165.887,241.624 165.623 C 241.624 165.360,241.463 165.144,241.266 165.144 C 241.069 165.144,240.989 165.012,241.089 164.851 C 241.188 164.689,240.969 164.285,240.601 163.952 C 240.233 163.619,239.932 163.218,239.932 163.061 C 239.932 162.904,239.701 162.508,239.419 162.183 C 237.702 160.202,236.926 159.126,237.093 158.959 C 237.198 158.854,236.885 158.507,236.398 158.188 C 235.911 157.868,235.569 157.550,235.639 157.480 C 235.781 157.338,227.895 149.239,227.617 149.239 C 227.521 149.239,227.073 148.896,226.623 148.477 C 224.905 146.881,224.177 146.306,223.604 146.094 C 223.278 145.974,223.012 145.710,223.012 145.507 C 223.012 145.304,222.880 145.219,222.719 145.319 C 222.557 145.419,222.153 145.199,221.820 144.831 C 221.487 144.463,221.010 144.162,220.760 144.162 C 220.509 144.162,220.305 144.010,220.305 143.824 C 220.305 143.638,220.076 143.486,219.797 143.486 C 219.518 143.486,219.289 143.308,219.289 143.091 C 219.289 142.874,219.197 142.789,219.083 142.902 C 218.970 143.015,218.115 142.584,217.184 141.943 C 216.253 141.302,215.280 140.778,215.021 140.778 C 214.763 140.778,214.552 140.617,214.552 140.420 C 214.552 140.223,214.425 140.140,214.270 140.236 C 214.115 140.332,213.437 140.036,212.765 139.579 C 212.092 139.122,211.288 138.748,210.978 138.748 C 210.667 138.748,209.860 138.457,209.183 138.101 C 208.055 137.508,207.155 137.146,206.511 137.029 C 206.373 137.003,205.728 136.786,205.076 136.545 C 204.425 136.304,203.587 135.995,203.215 135.858 C 202.843 135.720,202.310 135.575,202.030 135.534 C 201.751 135.493,200.609 135.205,199.492 134.893 C 198.376 134.581,196.794 134.251,195.979 134.160 C 195.163 134.069,194.359 133.910,194.192 133.807 C 194.026 133.704,193.246 133.558,192.461 133.484 C 191.675 133.409,190.118 133.257,189.002 133.146 C 187.885 133.036,182.894 132.918,177.911 132.886 L 168.851 132.826 173.696 137.640 M127.247 201.697 L 127.252 270.220 132.069 265.360 L 136.887 260.501 136.800 201.564 L 136.714 142.627 131.978 137.900 L 127.242 133.173 127.247 201.697 M147.885 201.523 L 147.885 254.982 152.623 250.254 L 157.360 245.525 157.360 201.523 L 157.360 157.521 152.623 152.792 L 147.885 148.063 147.885 201.523 M178.342 261.003 C 178.342 261.052,176.324 263.070,173.858 265.487 L 169.374 269.882 173.768 265.398 C 177.850 261.232,178.342 260.760,178.342 261.003 " stroke="none" fill="#84c444" fill-rule="evenodd"></path><path id="path1" d="M152.115 110.660 L 162.263 120.812 166.665 120.739 L 171.066 120.666 166.836 120.562 L 162.606 120.458 152.873 110.736 L 143.141 101.015 149.489 100.835 L 155.838 100.654 148.902 100.581 L 141.967 100.508 152.115 110.660 M161.248 105.838 C 165.558 110.218,166.832 111.327,167.509 111.291 L 168.359 111.245 167.513 111.097 C 166.990 111.006,164.595 108.920,161.252 105.644 L 155.838 100.338 161.248 105.838 M121.827 111.253 C 121.827 111.535,174.008 163.790,174.290 163.790 C 174.388 163.790,167.486 156.823,158.953 148.308 C 150.420 139.793,138.710 127.991,132.931 122.081 L 122.423 111.337 128.954 111.337 L 135.484 111.337 156.790 132.826 L 178.095 154.315 179.657 154.256 L 181.218 154.196 179.847 154.070 C 178.534 153.949,177.578 153.046,157.006 132.471 L 135.535 110.998 128.681 110.998 C 124.912 110.998,121.827 111.113,121.827 111.253 M169.628 111.245 C 170.326 111.318,171.468 111.318,172.166 111.245 C 172.864 111.172,172.293 111.112,170.897 111.112 C 169.501 111.112,168.930 111.172,169.628 111.245 M178.680 111.218 C 181.456 111.466,185.374 111.486,185.228 111.252 C 185.141 111.113,183.366 111.024,181.283 111.055 C 179.200 111.086,178.029 111.160,178.680 111.218 M189.594 111.570 C 189.920 111.655,190.453 111.655,190.778 111.570 C 191.104 111.485,190.838 111.415,190.186 111.415 C 189.535 111.415,189.268 111.485,189.594 111.570 M193.739 112.014 C 194.751 112.448,195.597 112.448,194.924 112.014 C 194.645 111.833,194.112 111.694,193.739 111.704 L 193.063 111.723 193.739 112.014 M204.754 113.809 C 205.060 114.157,209.137 115.346,209.137 115.088 C 209.137 114.956,208.338 114.646,207.360 114.398 C 206.383 114.150,205.355 113.869,205.076 113.773 C 204.797 113.676,204.652 113.693,204.754 113.809 M213.706 116.751 C 213.821 116.937,214.248 117.079,214.656 117.066 C 215.371 117.043,215.373 117.032,214.721 116.751 C 213.789 116.351,213.458 116.351,213.706 116.751 M216.055 117.602 C 216.416 117.879,216.911 118.105,217.154 118.105 C 217.909 118.105,217.646 117.849,216.497 117.466 C 215.491 117.130,215.454 117.142,216.055 117.602 M171.824 120.868 C 172.152 120.997,174.171 121.093,176.311 121.081 C 180.966 121.054,180.327 120.881,175.039 120.736 C 172.944 120.679,171.497 120.738,171.824 120.868 M188.316 121.137 C 188.436 121.331,188.931 121.489,189.416 121.489 C 190.477 121.489,190.355 121.327,189.058 121.015 C 188.429 120.864,188.174 120.906,188.316 121.137 M192.047 121.489 C 192.162 121.675,192.590 121.817,192.998 121.804 C 193.713 121.781,193.715 121.769,193.063 121.489 C 192.131 121.089,191.800 121.089,192.047 121.489 M196.447 122.144 C 196.819 122.295,197.809 122.510,198.646 122.622 L 200.169 122.826 198.477 122.333 C 196.656 121.803,195.288 121.675,196.447 122.144 M200.338 122.890 C 200.338 123.050,200.554 123.181,200.818 123.181 C 201.082 123.181,201.564 123.283,201.889 123.408 C 202.261 123.550,202.398 123.503,202.260 123.279 C 201.983 122.831,200.338 122.497,200.338 122.890 M206.658 124.539 C 207.123 124.969,208.569 125.322,208.338 124.950 C 208.225 124.766,207.737 124.540,207.255 124.448 C 206.773 124.356,206.504 124.397,206.658 124.539 M230.133 124.441 C 230.141 124.586,231.093 125.313,232.248 126.057 C 233.403 126.801,234.644 127.676,235.005 128.003 C 235.632 128.569,236.210 128.777,236.210 128.435 C 236.210 128.347,234.839 127.353,233.164 126.227 C 231.489 125.100,230.125 124.297,230.133 124.441 M208.799 125.205 C 208.799 125.332,209.332 125.600,209.983 125.800 C 210.635 126.000,211.168 126.063,211.168 125.939 C 211.168 125.816,210.635 125.549,209.983 125.345 C 209.332 125.141,208.799 125.078,208.799 125.205 M215.933 128.045 C 216.011 128.114,216.607 128.428,217.259 128.742 L 218.443 129.313 217.597 128.623 C 216.932 128.081,215.365 127.537,215.933 128.045 M237.902 129.912 C 237.902 130.109,238.345 130.499,238.887 130.779 C 239.428 131.060,239.940 131.482,240.025 131.719 C 240.109 131.955,240.282 132.053,240.409 131.936 C 240.536 131.819,240.024 131.235,239.271 130.638 C 238.518 130.042,237.902 129.715,237.902 129.912 M219.994 130.063 C 220.694 130.628,224.026 132.304,224.022 132.089 C 224.016 131.761,220.822 129.949,220.248 129.949 C 220.031 129.949,219.917 130.001,219.994 130.063 M241.111 132.318 C 241.275 132.597,241.944 133.283,242.598 133.841 C 243.804 134.872,249.467 140.561,251.209 142.491 C 251.734 143.073,252.225 143.489,252.299 143.414 C 252.517 143.196,246.367 136.765,243.468 134.179 C 242.007 132.876,240.947 132.039,241.111 132.318 M127.242 132.835 C 127.242 133.021,129.374 135.301,131.979 137.901 L 136.716 142.629 136.802 201.517 L 136.889 260.406 136.972 201.349 L 137.056 142.292 132.149 137.394 C 129.450 134.700,127.242 132.648,127.242 132.835 M173.290 137.588 C 175.971 140.273,178.254 142.470,178.365 142.470 C 178.475 142.470,176.452 140.376,173.868 137.817 L 169.172 133.164 176.210 132.979 L 183.249 132.793 175.833 132.750 L 168.417 132.706 173.290 137.588 M186.830 132.781 C 186.908 132.849,187.580 133.007,188.325 133.132 C 189.295 133.294,189.535 133.260,189.171 133.013 C 188.714 132.702,186.491 132.481,186.830 132.781 M191.201 133.333 C 191.667 133.482,192.352 133.609,192.724 133.614 L 193.401 133.624 192.724 133.333 C 192.352 133.173,191.667 133.047,191.201 133.052 L 190.355 133.062 191.201 133.333 M225.868 133.513 C 226.230 133.787,226.687 134.005,226.884 133.999 C 227.081 133.993,226.946 133.765,226.585 133.492 C 226.224 133.219,225.767 133.000,225.570 133.006 C 225.373 133.012,225.507 133.240,225.868 133.513 M193.909 133.643 C 194.618 134.035,197.264 134.445,196.616 134.063 C 196.337 133.898,195.499 133.673,194.755 133.563 C 193.968 133.447,193.614 133.480,193.909 133.643 M197.342 134.159 C 197.463 134.287,198.300 134.587,199.204 134.826 C 200.107 135.065,201.227 135.377,201.692 135.520 C 202.244 135.688,202.421 135.663,202.200 135.448 C 202.014 135.266,201.100 134.938,200.169 134.718 C 199.239 134.498,198.173 134.230,197.800 134.122 C 197.428 134.014,197.222 134.031,197.342 134.159 M227.411 134.264 C 227.411 134.407,227.716 134.714,228.088 134.947 C 228.460 135.179,228.765 135.253,228.765 135.110 C 228.765 134.967,228.460 134.660,228.088 134.427 C 227.716 134.195,227.411 134.121,227.411 134.264 M202.818 135.587 C 202.942 135.711,203.835 136.092,204.802 136.432 C 205.769 136.773,206.401 136.892,206.206 136.697 C 206.011 136.502,205.118 136.122,204.222 135.852 C 203.326 135.582,202.694 135.463,202.818 135.587 M230.116 136.362 C 230.767 136.901,231.376 137.264,231.470 137.169 C 231.683 136.953,229.737 135.364,229.272 135.375 C 229.086 135.379,229.466 135.823,230.116 136.362 M208.460 137.550 C 208.460 137.791,210.385 138.748,210.869 138.748 C 211.095 138.748,211.209 138.677,211.122 138.589 C 210.842 138.309,208.460 137.379,208.460 137.550 M233.815 139.211 C 234.731 140.205,234.912 140.303,234.670 139.671 C 234.579 139.435,234.165 139.034,233.750 138.781 C 233.030 138.342,233.033 138.362,233.815 139.211 M212.352 139.273 C 213.380 140.093,214.213 140.497,214.213 140.176 C 214.213 140.018,213.642 139.629,212.944 139.311 C 211.866 138.820,211.777 138.814,212.352 139.273 M214.552 140.357 C 214.552 140.507,215.008 140.802,215.567 141.013 C 216.125 141.224,216.582 141.337,216.582 141.265 C 216.582 141.193,216.125 140.898,215.567 140.609 C 215.008 140.320,214.552 140.207,214.552 140.357 M236.379 141.455 C 236.914 142.014,237.477 142.470,237.630 142.470 C 237.783 142.470,237.471 142.014,236.938 141.455 C 236.404 140.897,235.841 140.440,235.687 140.440 C 235.533 140.440,235.844 140.897,236.379 141.455 M216.920 141.593 C 216.920 141.678,217.377 142.073,217.936 142.470 C 218.494 142.868,218.951 143.035,218.951 142.841 C 218.951 142.647,218.494 142.252,217.936 141.963 C 217.377 141.674,216.920 141.507,216.920 141.593 M184.264 142.457 C 185.298 142.734,188.046 142.911,187.789 142.684 C 187.712 142.616,186.658 142.476,185.448 142.373 C 184.062 142.255,183.624 142.286,184.264 142.457 M238.832 143.323 C 239.296 144.183,240.948 145.736,240.948 145.311 C 240.948 145.134,240.390 144.463,239.709 143.820 C 238.999 143.150,238.625 142.938,238.832 143.323 M220.305 143.791 C 220.305 143.995,220.485 144.162,220.706 144.162 C 220.926 144.162,221.480 144.505,221.937 144.924 C 222.393 145.343,222.705 145.487,222.629 145.245 C 222.447 144.657,220.305 143.317,220.305 143.791 M196.677 143.998 C 196.772 144.093,198.110 144.538,199.650 144.985 C 201.189 145.433,202.316 145.673,202.155 145.520 C 201.648 145.038,196.205 143.525,196.677 143.998 M252.453 143.993 C 252.453 144.355,255.309 147.829,255.769 148.026 C 256.011 148.130,255.512 147.310,254.661 146.203 C 253.174 144.270,252.453 143.549,252.453 143.993 M241.286 145.744 C 241.286 146.113,244.632 149.862,244.655 149.518 C 244.663 149.393,244.248 148.860,243.731 148.334 C 243.215 147.808,242.454 146.938,242.039 146.401 C 241.625 145.864,241.286 145.569,241.286 145.744 M224.708 146.757 C 224.710 146.912,225.243 147.383,225.893 147.803 C 226.542 148.224,227.073 148.719,227.073 148.903 C 227.073 149.088,227.234 149.239,227.431 149.239 C 227.628 149.239,227.702 149.097,227.596 148.925 C 227.259 148.380,224.704 146.461,224.708 146.757 M206.430 147.295 C 206.718 147.586,210.829 149.595,210.829 149.445 C 210.829 149.212,208.021 147.653,207.107 147.378 C 206.641 147.239,206.337 147.201,206.430 147.295 M147.547 201.523 C 147.547 231.024,147.663 255.161,147.805 255.161 C 147.947 255.161,150.231 252.989,152.881 250.334 L 157.699 245.508 157.699 201.514 L 157.699 157.521 152.872 152.703 C 150.218 150.053,147.933 147.885,147.796 147.885 C 147.659 147.885,147.547 172.022,147.547 201.523 M157.360 201.523 L 157.360 245.525 152.623 250.254 L 147.885 254.982 147.885 201.523 L 147.885 148.063 152.623 152.792 L 157.360 157.521 157.360 201.523 M256.188 148.671 C 256.181 148.823,256.391 149.163,256.653 149.426 C 256.916 149.688,257.200 150.096,257.284 150.332 C 257.368 150.568,257.527 150.679,257.638 150.579 C 257.748 150.479,257.470 149.946,257.019 149.395 C 256.569 148.843,256.195 148.518,256.188 148.671 M228.088 149.326 C 228.088 149.443,229.763 151.252,231.810 153.345 C 233.858 155.438,235.532 157.008,235.530 156.833 C 235.529 156.658,233.853 154.849,231.808 152.814 C 229.762 150.779,228.088 149.209,228.088 149.326 M245.880 151.447 C 246.570 152.289,247.227 152.886,247.340 152.773 C 247.453 152.660,247.279 152.373,246.954 152.135 C 246.628 151.897,246.362 151.552,246.362 151.369 C 246.362 150.994,245.259 149.915,244.875 149.915 C 244.737 149.915,245.189 150.605,245.880 151.447 M258.268 151.777 C 258.480 152.242,258.785 152.623,258.945 152.623 C 259.106 152.623,258.988 152.242,258.683 151.777 C 258.378 151.311,258.073 150.931,258.006 150.931 C 257.938 150.931,258.056 151.311,258.268 151.777 M214.213 151.410 C 214.213 151.476,214.612 151.791,215.099 152.110 C 215.667 152.482,215.933 152.538,215.843 152.266 C 215.718 151.892,214.213 151.102,214.213 151.410 M259.456 153.616 C 259.550 153.976,259.934 154.547,260.308 154.885 C 260.941 155.456,260.937 155.411,260.241 154.230 C 259.403 152.809,259.204 152.653,259.456 153.616 M250.246 157.551 C 251.739 159.846,253.099 161.731,253.267 161.741 C 253.436 161.751,253.345 161.493,253.065 161.168 C 252.785 160.842,252.455 160.347,252.330 160.068 C 252.115 159.584,251.527 158.659,249.239 155.204 C 248.680 154.361,248.068 153.605,247.877 153.525 C 247.687 153.445,248.753 155.257,250.246 157.551 M183.164 154.219 C 183.676 154.296,184.514 154.296,185.025 154.219 C 185.537 154.141,185.118 154.078,184.095 154.078 C 183.071 154.078,182.652 154.141,183.164 154.219 M218.613 154.246 C 218.613 154.552,221.500 157.022,221.857 157.022 C 221.989 157.022,221.642 156.603,221.085 156.091 C 219.459 154.596,218.613 153.964,218.613 154.246 M191.201 154.938 C 191.929 155.366,194.130 155.749,193.729 155.377 C 193.549 155.210,192.792 154.976,192.047 154.856 C 191.205 154.721,190.886 154.752,191.201 154.938 M195.723 155.930 C 195.836 156.114,196.324 156.340,196.806 156.432 C 197.840 156.630,197.480 156.191,196.320 155.839 C 195.819 155.688,195.594 155.722,195.723 155.930 M261.644 157.360 C 262.057 157.919,262.446 158.376,262.509 158.376 C 262.572 158.376,262.387 157.919,262.098 157.360 C 261.809 156.802,261.420 156.345,261.233 156.345 C 261.046 156.345,261.231 156.802,261.644 157.360 M199.728 157.175 C 200.155 157.650,203.384 159.027,203.384 158.735 C 203.384 158.578,202.737 158.187,201.946 157.868 C 199.745 156.978,199.473 156.893,199.728 157.175 M222.335 157.229 C 222.335 157.404,223.506 158.685,224.938 160.076 C 227.927 162.981,227.598 162.309,224.451 159.082 C 223.287 157.889,222.335 157.055,222.335 157.229 M235.533 157.491 C 235.533 157.562,235.952 157.890,236.464 158.220 L 237.394 158.819 236.750 158.090 C 236.179 157.444,235.533 157.126,235.533 157.491 M237.607 159.939 C 238.096 160.475,238.672 161.256,238.888 161.675 C 239.103 162.094,239.441 162.437,239.638 162.437 C 240.104 162.437,237.777 159.289,237.175 159.104 C 236.923 159.027,237.118 159.402,237.607 159.939 M206.444 160.311 C 206.461 160.623,208.704 162.098,209.161 162.098 C 209.334 162.098,209.475 162.233,209.475 162.397 C 209.475 162.561,209.802 162.781,210.201 162.886 C 211.150 163.134,210.743 162.776,208.376 161.278 C 207.305 160.601,206.436 160.166,206.444 160.311 M227.750 163.008 C 227.750 163.195,228.054 163.623,228.426 163.959 C 228.799 164.296,229.103 164.420,229.103 164.233 C 229.103 164.047,228.799 163.619,228.426 163.283 C 228.054 162.946,227.750 162.822,227.750 163.008 M239.932 163.061 C 239.932 163.218,240.260 163.637,240.662 163.992 L 241.391 164.636 240.792 163.706 C 240.174 162.746,239.932 162.565,239.932 163.061 M180.457 164.033 C 180.969 164.110,181.806 164.110,182.318 164.033 C 182.830 163.955,182.411 163.892,181.387 163.892 C 180.364 163.892,179.945 163.955,180.457 164.033 M189.002 164.440 C 189.374 164.588,190.288 164.798,191.032 164.906 L 192.386 165.103 191.032 164.642 C 190.288 164.388,189.374 164.179,189.002 164.176 L 188.325 164.171 189.002 164.440 M213.272 165.137 C 213.503 165.506,213.919 165.895,214.198 166.002 C 214.477 166.109,214.339 165.807,213.892 165.332 C 212.918 164.295,212.704 164.228,213.272 165.137 M192.556 165.083 C 192.556 165.209,193.394 165.560,194.417 165.861 C 195.440 166.162,196.277 166.294,196.277 166.154 C 196.277 166.014,195.935 165.820,195.516 165.723 C 195.097 165.627,194.260 165.391,193.655 165.200 C 193.050 165.009,192.555 164.956,192.556 165.083 M241.201 165.030 C 241.434 165.123,241.624 165.416,241.624 165.680 C 241.624 165.943,241.782 166.159,241.975 166.159 C 242.212 166.159,242.208 165.941,241.963 165.482 C 241.764 165.110,241.416 164.817,241.189 164.832 C 240.880 164.852,240.883 164.901,241.201 165.030 M265.821 165.821 C 266.109 166.379,266.405 166.836,266.477 166.836 C 266.549 166.836,266.435 166.379,266.225 165.821 C 266.014 165.262,265.719 164.805,265.569 164.805 C 265.418 164.805,265.532 165.262,265.821 165.821 M216.413 168.090 C 217.976 169.661,218.470 170.237,220.274 172.589 C 220.631 173.054,221.011 173.347,221.119 173.240 C 221.373 172.987,215.895 166.768,215.228 166.553 C 214.949 166.462,215.482 167.154,216.413 168.090 M242.302 166.751 C 242.304 167.108,243.606 169.205,243.826 169.205 C 243.926 169.205,243.696 168.596,243.316 167.851 C 242.665 166.574,242.300 166.178,242.302 166.751 M256.361 168.426 C 257.252 170.441,257.530 170.896,257.530 170.340 C 257.530 169.902,255.883 166.497,255.672 166.497 C 255.582 166.497,255.892 167.366,256.361 168.426 M198.308 167.124 C 198.308 167.260,199.146 167.782,200.169 168.285 C 201.193 168.787,202.021 169.085,202.010 168.947 C 201.982 168.615,198.308 166.805,198.308 167.124 M231.861 168.524 C 232.272 169.080,232.672 169.471,232.750 169.393 C 232.939 169.204,231.715 167.537,231.377 167.523 C 231.232 167.517,231.450 167.968,231.861 168.524 M267.109 169.205 C 267.319 169.763,267.603 170.220,267.738 170.220 C 267.874 170.220,267.826 169.763,267.631 169.205 C 267.437 168.646,267.153 168.190,267.001 168.190 C 266.850 168.190,266.898 168.646,267.109 169.205 M202.369 169.329 C 202.369 169.397,202.978 169.856,203.723 170.349 C 204.467 170.842,205.076 171.086,205.076 170.891 C 205.076 170.696,204.810 170.436,204.484 170.313 C 204.158 170.190,203.690 169.890,203.445 169.647 C 203.030 169.237,202.369 169.042,202.369 169.329 M243.993 169.581 C 243.993 169.907,245.362 172.589,245.529 172.589 C 245.756 172.589,244.711 170.127,244.314 169.729 C 244.138 169.552,243.993 169.486,243.993 169.581 M233.164 170.558 C 233.363 170.931,233.711 171.223,233.937 171.208 C 234.247 171.188,234.244 171.140,233.926 171.011 C 233.693 170.917,233.503 170.625,233.503 170.361 C 233.503 170.097,233.345 169.882,233.152 169.882 C 232.915 169.882,232.919 170.099,233.164 170.558 M205.415 170.966 C 205.415 171.068,207.221 172.960,209.430 175.170 C 211.638 177.380,213.199 178.810,212.898 178.347 C 212.048 177.039,205.415 170.496,205.415 170.966 M234.587 172.905 C 235.008 173.637,235.400 174.188,235.457 174.131 C 235.648 173.940,234.398 171.574,234.107 171.574 C 233.949 171.574,234.165 172.173,234.587 172.905 M268.622 173.120 C 268.898 173.958,269.176 174.592,269.240 174.528 C 269.427 174.341,268.698 171.952,268.396 171.766 C 268.244 171.672,268.346 172.281,268.622 173.120 M221.320 173.806 C 221.320 173.939,221.674 174.519,222.107 175.095 C 222.539 175.671,223.253 176.789,223.692 177.580 C 224.131 178.371,224.611 179.019,224.759 179.019 C 224.907 179.019,224.336 177.880,223.491 176.487 C 222.066 174.140,221.320 173.219,221.320 173.806 M259.170 175.631 C 259.477 176.560,259.829 177.321,259.950 177.323 C 260.072 177.325,259.920 176.567,259.612 175.638 C 259.304 174.709,258.953 173.948,258.831 173.946 C 258.710 173.944,258.862 174.702,259.170 175.631 M236.316 176.303 C 237.283 178.505,237.737 178.512,236.823 176.311 C 236.436 175.381,235.997 174.619,235.848 174.619 C 235.698 174.619,235.909 175.377,236.316 176.303 M246.914 175.973 C 247.277 177.399,247.726 178.444,247.901 178.269 C 247.993 178.177,247.760 177.433,247.384 176.614 C 247.007 175.796,246.796 175.508,246.914 175.973 M270.139 178.172 C 270.339 178.824,270.554 179.305,270.617 179.242 C 270.830 179.029,270.307 176.988,270.040 176.988 C 269.895 176.988,269.939 177.521,270.139 178.172 M238.018 180.202 C 238.419 181.226,238.848 182.063,238.971 182.064 C 239.093 182.064,238.865 181.227,238.463 180.204 C 238.061 179.180,237.632 178.343,237.510 178.342 C 237.387 178.342,237.616 179.179,238.018 180.202 M214.075 180.541 C 214.380 181.007,214.768 181.387,214.937 181.387 C 215.106 181.387,214.995 181.007,214.690 180.541 C 214.385 180.076,213.997 179.695,213.828 179.695 C 213.659 179.695,213.770 180.076,214.075 180.541 M260.782 180.880 C 261.060 182.124,261.254 182.394,261.247 181.528 C 261.244 181.172,261.087 180.651,260.898 180.372 C 260.647 180.002,260.616 180.138,260.782 180.880 M248.934 181.953 C 249.475 183.748,249.928 184.447,249.555 182.910 C 249.227 181.560,248.782 180.372,248.603 180.372 C 248.524 180.372,248.673 181.083,248.934 181.953 M225.739 180.968 C 225.715 181.490,227.108 184.511,227.289 184.329 C 227.361 184.258,227.045 183.377,226.589 182.371 C 226.132 181.365,225.749 180.733,225.739 180.968 M215.228 182.403 C 215.428 182.775,215.739 183.080,215.920 183.080 C 216.102 183.080,216.061 182.778,215.827 182.403 C 215.594 182.030,215.283 181.726,215.135 181.726 C 214.987 181.726,215.029 182.030,215.228 182.403 M261.302 182.572 C 261.290 182.758,261.490 183.748,261.745 184.772 C 262.001 185.795,262.211 186.252,262.213 185.787 C 262.215 184.966,261.344 181.892,261.302 182.572 M216.642 184.916 C 217.055 185.767,217.502 186.464,217.634 186.464 C 217.950 186.464,216.689 183.863,216.239 183.584 C 216.047 183.466,216.228 184.065,216.642 184.916 M239.599 184.788 C 239.602 184.872,239.832 185.626,240.111 186.464 L 240.618 187.986 240.418 186.633 C 240.264 185.589,239.574 184.035,239.599 184.788 M271.767 186.021 C 271.843 186.899,272.372 187.644,272.396 186.907 C 272.409 186.499,272.267 186.071,272.081 185.956 C 271.895 185.841,271.754 185.870,271.767 186.021 M217.597 186.865 C 217.597 186.974,217.833 187.575,218.122 188.201 C 218.644 189.336,218.645 189.337,218.436 188.325 C 218.255 187.448,217.597 186.303,217.597 186.865 M250.462 188.352 C 250.627 189.237,250.856 190.050,250.970 190.158 C 251.275 190.448,250.739 187.360,250.426 187.026 C 250.280 186.871,250.296 187.467,250.462 188.352 M272.300 188.832 C 272.567 190.292,272.760 190.567,272.753 189.481 C 272.750 189.031,272.598 188.435,272.415 188.156 C 272.181 187.799,272.147 187.999,272.300 188.832 M240.817 189.858 C 240.938 190.504,241.172 191.180,241.337 191.360 C 241.513 191.553,241.546 191.203,241.417 190.514 C 241.296 189.868,241.061 189.193,240.896 189.012 C 240.720 188.820,240.687 189.169,240.817 189.858 M250.785 190.758 C 250.862 191.637,251.391 192.382,251.414 191.644 C 251.428 191.237,251.286 190.809,251.100 190.694 C 250.914 190.579,250.772 190.608,250.785 190.758 M272.718 191.952 C 272.874 192.892,272.921 192.940,273.028 192.262 C 273.097 191.822,273.014 191.322,272.844 191.152 C 272.656 190.964,272.606 191.280,272.718 191.952 M262.949 192.583 C 262.952 193.033,263.104 193.629,263.287 193.909 C 263.521 194.266,263.556 194.065,263.403 193.232 C 263.135 191.772,262.942 191.497,262.949 192.583 M251.139 193.232 C 251.154 193.511,251.289 194.120,251.438 194.585 L 251.709 195.431 251.738 194.585 C 251.753 194.120,251.619 193.511,251.438 193.232 C 251.147 192.781,251.113 192.781,251.139 193.232 M219.865 194.493 C 220.127 196.193,220.305 196.329,220.305 194.831 C 220.305 194.160,220.161 193.522,219.986 193.413 C 219.796 193.296,219.747 193.732,219.865 194.493 M229.811 195.008 C 229.964 195.799,230.096 197.043,230.104 197.772 C 230.112 198.501,230.213 199.003,230.329 198.887 C 230.623 198.593,230.120 193.570,229.797 193.570 C 229.651 193.570,229.658 194.217,229.811 195.008 M272.977 195.431 C 273.095 196.362,273.246 197.187,273.313 197.265 C 273.603 197.601,273.392 194.705,273.094 194.247 C 272.868 193.900,272.831 194.276,272.977 195.431 M263.322 196.342 C 263.300 197.401,263.397 198.339,263.536 198.425 C 263.676 198.511,263.745 197.873,263.689 197.007 C 263.530 194.535,263.365 194.236,263.322 196.342 M220.305 197.611 C 220.305 198.159,220.425 198.681,220.572 198.772 C 220.719 198.863,220.779 198.415,220.704 197.777 C 220.538 196.354,220.305 196.258,220.305 197.611 M251.750 200.931 C 251.735 202.745,251.619 205.481,251.492 207.009 C 251.364 208.538,251.378 209.671,251.521 209.528 C 251.843 209.206,252.308 197.631,251.999 197.631 C 251.877 197.631,251.765 199.116,251.750 200.931 M242.074 201.523 C 242.075 202.826,242.136 203.317,242.210 202.615 C 242.283 201.913,242.282 200.847,242.207 200.246 C 242.132 199.646,242.072 200.220,242.074 201.523 M220.532 204.024 C 220.407 204.649,220.321 205.484,220.342 205.880 C 220.362 206.275,220.514 205.914,220.678 205.076 C 220.843 204.239,220.929 203.403,220.869 203.220 C 220.809 203.037,220.657 203.399,220.532 204.024 M229.961 206.610 C 229.828 207.843,229.792 208.923,229.878 209.010 C 229.965 209.097,230.144 208.159,230.276 206.926 C 230.408 205.693,230.445 204.613,230.358 204.527 C 230.272 204.440,230.093 205.377,229.961 206.610 M263.368 205.584 C 263.372 206.328,263.441 206.593,263.522 206.172 C 263.603 205.751,263.600 205.142,263.515 204.818 C 263.430 204.495,263.364 204.839,263.368 205.584 M241.775 206.919 C 241.647 207.598,241.619 208.230,241.712 208.323 C 241.805 208.416,241.986 207.936,242.113 207.257 C 242.241 206.578,242.269 205.946,242.176 205.853 C 242.083 205.760,241.902 206.239,241.775 206.919 M273.080 207.013 C 272.987 207.799,273.040 208.314,273.198 208.156 C 273.355 207.998,273.431 207.355,273.366 206.727 C 273.252 205.612,273.245 205.619,273.080 207.013 M272.804 210.548 C 272.779 210.858,272.659 211.391,272.539 211.732 C 272.370 212.211,272.415 212.264,272.737 211.968 C 272.966 211.757,273.085 211.224,273.002 210.784 C 272.919 210.343,272.829 210.237,272.804 210.548 M218.988 212.267 C 218.405 213.824,218.198 214.713,218.480 214.445 C 218.802 214.138,219.639 211.506,219.414 211.506 C 219.336 211.506,219.144 211.849,218.988 212.267 M262.684 213.198 C 262.684 213.849,262.754 214.116,262.839 213.790 C 262.924 213.464,262.924 212.931,262.839 212.606 C 262.754 212.280,262.684 212.547,262.684 213.198 M250.592 213.875 C 250.462 214.644,250.427 215.345,250.514 215.432 C 250.600 215.519,250.773 214.955,250.897 214.179 C 251.021 213.404,251.056 212.703,250.975 212.622 C 250.895 212.542,250.722 213.105,250.592 213.875 M272.498 213.536 C 272.498 214.188,272.568 214.454,272.653 214.129 C 272.738 213.803,272.738 213.270,272.653 212.944 C 272.568 212.618,272.498 212.885,272.498 213.536 M240.838 213.452 C 240.557 213.930,240.191 216.075,240.430 215.847 C 240.561 215.723,240.791 215.075,240.941 214.409 C 241.202 213.255,241.163 212.899,240.838 213.452 M217.640 215.778 C 217.416 216.268,217.311 216.747,217.406 216.842 C 217.501 216.937,217.739 216.591,217.936 216.074 C 218.132 215.558,218.237 215.079,218.169 215.011 C 218.101 214.943,217.863 215.288,217.640 215.778 M239.832 217.174 C 239.585 218.463,239.782 218.515,240.214 217.276 C 240.412 216.708,240.447 216.244,240.293 216.244 C 240.138 216.244,239.931 216.662,239.832 217.174 M227.421 217.403 C 226.890 218.798,227.060 219.276,227.625 217.981 C 227.898 217.354,228.043 216.762,227.945 216.665 C 227.848 216.568,227.612 216.900,227.421 217.403 M271.591 218.467 C 271.467 219.132,271.275 219.931,271.166 220.244 C 271.029 220.633,271.078 220.705,271.320 220.474 C 271.682 220.127,272.270 217.259,271.979 217.259 C 271.891 217.259,271.716 217.803,271.591 218.467 M261.777 218.020 C 261.372 219.337,261.261 220.339,261.540 220.167 C 261.713 220.060,261.917 219.438,261.993 218.785 C 262.131 217.600,262.024 217.220,261.777 218.020 M239.023 219.882 C 238.804 220.580,238.514 221.455,238.379 221.827 C 238.243 222.200,238.220 222.428,238.327 222.335 C 238.694 222.017,239.923 218.613,239.671 218.613 C 239.533 218.613,239.241 219.184,239.023 219.882 M215.582 219.937 C 215.374 220.326,215.346 220.643,215.519 220.643 C 215.867 220.643,216.347 219.618,216.110 219.381 C 216.027 219.299,215.790 219.549,215.582 219.937 M249.283 219.664 C 249.205 219.923,248.847 221.087,248.487 222.250 C 248.127 223.414,247.935 224.365,248.059 224.365 C 248.330 224.365,249.776 219.544,249.568 219.336 C 249.488 219.257,249.360 219.405,249.283 219.664 M261.150 220.897 C 260.804 221.513,260.547 223.160,260.846 222.843 C 261.197 222.470,261.697 220.643,261.448 220.643 C 261.362 220.643,261.228 220.757,261.150 220.897 M213.737 222.843 C 213.430 223.311,213.342 223.689,213.539 223.689 C 213.735 223.689,213.994 223.422,214.115 223.096 C 214.235 222.771,214.496 222.392,214.696 222.256 C 214.949 222.082,214.943 222.005,214.675 222.002 C 214.464 221.999,214.042 222.377,213.737 222.843 M237.474 224.023 C 237.181 224.770,237.074 225.381,237.236 225.381 C 237.523 225.381,238.329 222.988,238.115 222.773 C 238.056 222.714,237.767 223.277,237.474 224.023 M209.814 227.391 C 208.232 229.021,206.404 230.757,205.753 231.248 C 205.102 231.740,204.726 232.143,204.919 232.145 C 205.660 232.153,212.860 225.401,212.860 224.698 C 212.860 224.233,212.990 224.118,209.814 227.391 M269.890 225.501 C 269.792 225.807,269.641 226.286,269.554 226.565 C 269.467 226.844,269.525 227.073,269.684 227.073 C 269.842 227.073,270.052 226.654,270.151 226.142 C 270.351 225.100,270.164 224.641,269.890 225.501 M235.615 228.040 C 235.008 229.276,234.754 229.983,235.049 229.611 C 235.821 228.637,236.944 226.394,236.822 226.069 C 236.764 225.917,236.221 226.804,235.615 228.040 M259.294 226.956 C 259.085 227.636,259.049 228.054,259.213 227.886 C 259.545 227.547,260.059 225.719,259.823 225.719 C 259.741 225.719,259.503 226.275,259.294 226.956 M246.527 227.613 C 246.241 228.340,245.857 229.201,245.674 229.526 C 245.491 229.852,245.464 230.118,245.615 230.118 C 245.945 230.118,247.439 226.683,247.209 226.453 C 247.120 226.364,246.814 226.886,246.527 227.613 M219.938 230.795 C 219.125 231.912,218.358 232.826,218.234 232.826 C 218.110 232.826,217.909 233.084,217.788 233.399 C 217.588 233.919,217.629 233.917,218.229 233.374 C 219.310 232.395,222.067 228.765,221.729 228.765 C 221.557 228.765,220.752 229.679,219.938 230.795 M257.610 231.509 C 257.198 232.486,256.922 233.346,256.997 233.422 C 257.192 233.616,258.582 230.398,258.460 230.034 C 258.405 229.869,258.023 230.533,257.610 231.509 M268.057 231.557 C 267.521 232.989,267.298 233.841,267.458 233.841 C 267.546 233.841,267.852 233.156,268.137 232.318 C 268.659 230.788,268.590 230.133,268.057 231.557 M203.389 232.810 C 202.927 233.165,202.634 233.542,202.739 233.647 C 202.844 233.752,203.287 233.458,203.724 232.994 C 204.667 231.989,204.545 231.922,203.389 232.810 M232.569 233.338 C 232.148 233.987,231.943 234.518,232.112 234.518 C 232.282 234.518,232.735 233.985,233.119 233.333 C 234.027 231.795,233.566 231.799,232.569 233.338 M243.539 233.911 C 243.264 234.962,243.473 235.016,243.931 234.012 C 244.143 233.545,244.186 233.164,244.025 233.164 C 243.865 233.164,243.646 233.500,243.539 233.911 M201.498 234.003 C 201.139 234.274,200.998 234.499,201.184 234.502 C 201.687 234.510,202.547 233.906,202.334 233.694 C 202.233 233.592,201.857 233.732,201.498 234.003 M266.203 236.058 C 265.856 236.904,265.643 237.668,265.732 237.757 C 265.821 237.845,266.211 237.153,266.599 236.218 C 266.988 235.283,267.200 234.518,267.071 234.519 C 266.942 234.520,266.551 235.212,266.203 236.058 M230.190 236.737 C 229.234 237.976,228.974 238.490,229.429 238.247 C 229.808 238.044,230.118 237.736,230.118 237.563 C 230.118 237.390,230.591 236.710,231.169 236.052 C 231.746 235.394,232.089 234.857,231.930 234.857 C 231.771 234.858,230.988 235.704,230.190 236.737 M255.561 236.041 C 255.349 236.506,255.286 236.885,255.422 236.884 C 255.557 236.883,255.844 236.502,256.060 236.038 C 256.275 235.574,256.337 235.195,256.198 235.195 C 256.060 235.195,255.773 235.575,255.561 236.041 M196.701 236.220 C 195.909 236.571,195.262 236.943,195.262 237.047 C 195.262 237.290,197.702 236.272,198.122 235.854 C 198.549 235.427,198.394 235.467,196.701 236.220 M214.303 236.802 C 213.738 237.314,212.650 238.181,211.883 238.728 C 211.117 239.276,210.491 239.857,210.491 240.020 C 210.491 240.343,214.144 237.560,215.087 236.518 C 215.951 235.563,215.481 235.733,214.303 236.802 M189.225 238.302 C 188.417 238.483,187.834 238.708,187.929 238.803 C 188.122 238.996,191.878 238.276,191.878 238.047 C 191.878 237.835,190.895 237.929,189.225 238.302 M240.331 239.123 C 239.399 240.561,239.564 241.073,240.517 239.698 C 241.518 238.252,241.689 237.901,241.391 237.906 C 241.240 237.908,240.763 238.456,240.331 239.123 M253.416 240.295 C 252.927 241.212,252.649 241.963,252.798 241.963 C 253.102 241.963,254.635 238.955,254.434 238.754 C 254.363 238.684,253.906 239.377,253.416 240.295 M177.589 239.165 C 178.385 239.237,179.604 239.236,180.297 239.163 C 180.990 239.090,180.338 239.032,178.849 239.033 C 177.360 239.034,176.793 239.094,177.589 239.165 M183.507 239.160 C 184.022 239.238,184.783 239.236,185.199 239.155 C 185.615 239.075,185.195 239.011,184.264 239.014 C 183.333 239.016,182.993 239.082,183.507 239.160 M227.580 239.932 C 227.045 240.491,226.733 240.948,226.886 240.948 C 227.167 240.948,228.765 239.350,228.765 239.069 C 228.765 238.768,228.537 238.934,227.580 239.932 M147.715 265.374 C 127.567 285.569,125.046 288.175,136.598 276.866 C 144.815 268.822,156.509 257.155,162.585 250.939 C 168.854 244.525,173.955 239.575,174.380 239.492 C 175.045 239.364,175.052 239.343,174.449 239.302 C 173.973 239.269,166.032 247.013,147.715 265.374 M262.653 243.580 C 261.469 245.948,260.658 247.733,260.852 247.547 C 261.438 246.982,265.390 239.255,265.088 239.266 C 264.932 239.271,263.837 241.213,262.653 243.580 M208.132 241.273 C 207.858 241.446,207.717 241.670,207.818 241.772 C 207.919 241.873,208.295 241.734,208.654 241.462 C 209.368 240.923,208.934 240.765,208.132 241.273 M224.873 242.978 C 223.956 243.909,223.321 244.670,223.460 244.670 C 223.717 244.670,226.734 241.679,226.734 241.424 C 226.734 241.133,226.489 241.337,224.873 242.978 M237.580 243.063 C 237.011 243.668,236.460 244.429,236.355 244.755 C 236.250 245.080,236.028 245.347,235.861 245.347 C 235.693 245.347,235.374 245.690,235.151 246.108 C 234.505 247.321,235.494 246.377,237.367 243.993 C 239.108 241.777,239.211 241.326,237.580 243.063 M251.855 242.978 C 251.623 243.350,251.549 243.655,251.692 243.655 C 251.835 243.655,252.142 243.350,252.375 242.978 C 252.607 242.606,252.681 242.301,252.538 242.301 C 252.395 242.301,252.088 242.606,251.855 242.978 M204.158 243.449 C 203.373 243.841,202.726 244.275,202.720 244.412 C 202.713 244.549,203.393 244.328,204.230 243.921 C 205.068 243.514,205.753 243.060,205.753 242.911 C 205.753 242.762,205.715 242.661,205.668 242.688 C 205.622 242.714,204.942 243.057,204.158 243.449 M221.489 246.024 C 220.954 246.582,220.594 247.039,220.688 247.039 C 220.782 247.039,221.371 246.582,221.997 246.024 C 222.622 245.465,222.983 245.008,222.798 245.008 C 222.613 245.008,222.024 245.465,221.489 246.024 M250.163 245.685 C 249.931 246.058,249.857 246.362,250.000 246.362 C 250.143 246.362,250.450 246.058,250.683 245.685 C 250.915 245.313,250.989 245.008,250.846 245.008 C 250.703 245.008,250.396 245.313,250.163 245.685 M199.020 245.714 C 198.574 245.892,198.290 246.119,198.389 246.217 C 198.487 246.316,199.080 246.172,199.707 245.899 C 200.952 245.356,200.333 245.189,199.020 245.714 M195.093 247.039 C 194.231 247.409,195.120 247.409,196.277 247.039 C 196.958 246.821,196.991 246.766,196.447 246.758 C 196.074 246.753,195.465 246.879,195.093 247.039 M248.720 247.781 L 247.959 248.900 248.887 247.947 C 249.397 247.423,249.740 246.920,249.648 246.828 C 249.557 246.736,249.139 247.165,248.720 247.781 M192.555 247.731 C 192.184 247.982,192.321 248.013,193.063 247.848 C 194.307 247.569,194.577 247.376,193.711 247.383 C 193.354 247.385,192.834 247.542,192.555 247.731 M231.534 250.085 C 230.003 251.574,228.871 252.792,229.019 252.792 C 229.167 252.792,230.499 251.574,231.980 250.085 C 233.460 248.596,234.592 247.377,234.495 247.377 C 234.398 247.377,233.066 248.596,231.534 250.085 M187.817 248.393 C 187.147 248.607,187.112 248.663,187.648 248.663 C 188.020 248.663,188.706 248.542,189.171 248.393 C 189.841 248.178,189.876 248.122,189.340 248.122 C 188.968 248.122,188.283 248.244,187.817 248.393 M181.049 248.731 L 179.526 248.968 180.880 249.013 C 181.624 249.038,182.462 248.911,182.741 248.731 C 183.020 248.551,183.096 248.423,182.910 248.449 C 182.724 248.474,181.887 248.601,181.049 248.731 M183.841 248.626 C 184.167 248.711,184.700 248.711,185.025 248.626 C 185.351 248.541,185.085 248.471,184.433 248.471 C 183.782 248.471,183.515 248.541,183.841 248.626 M156.828 270.238 C 145.089 282.047,135.572 291.709,135.679 291.709 C 135.786 291.709,145.543 282.039,157.360 270.220 C 169.178 258.401,178.696 248.739,178.510 248.749 C 178.324 248.759,168.568 258.429,156.828 270.238 M258.473 250.805 C 257.675 251.945,256.870 253.126,256.684 253.427 C 256.497 253.729,256.197 254.082,256.017 254.212 C 255.836 254.341,255.785 254.544,255.904 254.663 C 256.023 254.782,257.050 253.496,258.187 251.805 C 260.503 248.362,260.724 247.588,258.473 250.805 M215.082 250.793 C 212.742 252.346,212.470 252.578,213.377 252.245 C 214.237 251.929,217.597 249.808,217.597 249.581 C 217.597 249.225,217.037 249.495,215.082 250.793 M244.729 252.898 C 243.885 253.797,243.733 254.444,244.519 253.792 C 245.033 253.365,245.829 252.115,245.587 252.115 C 245.520 252.115,245.134 252.468,244.729 252.898 M211.083 253.153 C 210.385 253.522,209.814 253.899,209.814 253.991 C 209.814 254.084,210.423 253.849,211.168 253.469 C 211.912 253.089,212.521 252.705,212.521 252.616 C 212.521 252.394,212.519 252.395,211.083 253.153 M227.035 254.230 C 226.638 254.987,226.640 254.988,227.362 254.347 C 228.169 253.631,228.242 253.469,227.761 253.469 C 227.582 253.469,227.255 253.811,227.035 254.230 M207.276 255.063 C 204.945 256.101,204.909 256.122,205.121 256.334 C 205.273 256.486,208.969 254.765,209.385 254.348 C 209.726 254.008,209.387 254.123,207.276 255.063 M239.774 258.195 C 237.739 260.236,236.143 261.963,236.227 262.033 C 236.311 262.102,238.107 260.432,240.219 258.321 C 242.330 256.211,243.927 254.484,243.766 254.484 C 243.605 254.484,241.809 256.154,239.774 258.195 M224.725 255.844 C 224.085 256.391,223.632 256.909,223.718 256.995 C 223.804 257.080,224.479 256.633,225.219 255.999 C 225.960 255.366,226.413 254.848,226.227 254.849 C 226.041 254.849,225.365 255.297,224.725 255.844 M255.161 255.450 C 255.161 255.609,254.787 256.142,254.331 256.634 C 253.874 257.127,253.628 257.530,253.783 257.530 C 253.938 257.530,254.472 256.997,254.969 256.345 C 255.465 255.694,255.712 255.161,255.516 255.161 C 255.321 255.161,255.161 255.291,255.161 255.450 M203.469 256.680 C 202.864 256.943,202.369 257.234,202.369 257.326 C 202.369 257.588,204.378 256.823,204.589 256.481 C 204.826 256.097,204.799 256.102,203.469 256.680 M199.831 257.868 C 199.178 258.148,199.181 258.160,199.895 258.183 C 200.303 258.196,200.731 258.054,200.846 257.868 C 201.093 257.468,200.762 257.468,199.831 257.868 M221.151 258.545 C 220.814 258.917,220.357 259.222,220.135 259.222 C 219.914 259.222,219.443 259.546,219.088 259.942 C 218.605 260.482,218.889 260.390,220.220 259.575 C 221.197 258.976,221.997 258.348,221.997 258.177 C 221.997 257.721,221.831 257.793,221.151 258.545 M252.341 258.940 C 251.999 259.312,251.783 259.679,251.860 259.756 C 251.937 259.833,252.357 259.516,252.793 259.051 C 253.230 258.587,253.446 258.219,253.274 258.235 C 253.102 258.250,252.682 258.567,252.341 258.940 M192.236 259.591 C 189.960 260.037,189.796 260.230,191.878 260.011 C 192.902 259.903,193.884 259.681,194.061 259.518 C 194.433 259.175,194.336 259.179,192.236 259.591 M187.986 260.237 L 187.310 260.528 187.986 260.528 C 188.359 260.528,188.968 260.397,189.340 260.237 L 190.017 259.946 189.340 259.946 C 188.968 259.946,188.359 260.077,187.986 260.237 M173.589 265.367 L 168.667 270.389 177.884 270.389 C 182.953 270.389,187.171 270.275,187.258 270.135 C 187.344 269.996,183.356 269.925,178.394 269.979 L 169.374 270.075 174.097 265.336 L 178.820 260.596 182.726 260.489 L 186.633 260.382 182.572 260.364 L 178.511 260.345 173.589 265.367 M250.314 261.291 C 248.979 262.746,249.372 262.855,250.766 261.416 C 251.395 260.768,251.765 260.240,251.589 260.243 C 251.413 260.247,250.839 260.718,250.314 261.291 M131.989 265.439 L 127.431 270.220 132.243 265.487 C 134.890 262.884,137.056 260.713,137.056 260.664 C 137.056 260.245,135.924 261.312,131.989 265.439 M216.873 261.271 C 216.246 261.818,216.219 261.893,216.751 261.621 C 217.899 261.034,218.462 260.586,218.058 260.580 C 217.846 260.578,217.313 260.888,216.873 261.271 M213.621 262.680 C 212.573 263.186,212.654 263.700,213.706 263.221 C 214.171 263.009,214.552 262.708,214.552 262.551 C 214.552 262.218,214.591 262.212,213.621 262.680 M234.685 262.946 C 233.780 263.946,234.265 264.103,235.196 263.112 C 235.632 262.647,235.834 262.267,235.644 262.267 C 235.455 262.267,235.023 262.573,234.685 262.946 M247.009 264.919 C 245.969 265.973,244.311 267.559,243.325 268.443 C 242.339 269.327,241.667 270.047,241.832 270.042 C 242.267 270.028,249.271 263.386,249.069 263.178 C 248.976 263.081,248.049 263.865,247.009 264.919 M211.844 263.629 C 210.814 264.251,208.319 265.313,207.889 265.313 C 207.645 265.313,207.445 265.467,207.445 265.656 C 207.445 265.853,207.986 265.769,208.714 265.459 C 209.412 265.163,210.554 264.687,211.252 264.403 C 211.950 264.119,212.521 263.750,212.521 263.584 C 212.521 263.229,212.504 263.230,211.844 263.629 M232.826 264.467 C 232.591 264.750,232.554 264.975,232.743 264.975 C 232.929 264.975,233.271 264.746,233.503 264.467 C 233.738 264.184,233.774 263.959,233.585 263.959 C 233.399 263.959,233.057 264.188,232.826 264.467 M204.817 266.494 C 202.139 267.438,201.670 267.852,204.091 267.136 C 205.984 266.576,207.107 266.082,207.107 265.809 C 207.107 265.722,207.069 265.673,207.022 265.699 C 206.975 265.725,205.983 266.083,204.817 266.494 M229.272 267.199 L 228.257 268.067 229.357 267.463 C 229.962 267.131,230.457 266.740,230.457 266.594 C 230.457 266.209,230.392 266.243,229.272 267.199 M225.790 269.422 C 224.655 270.148,224.494 270.578,225.501 270.192 C 225.807 270.074,226.058 269.842,226.058 269.676 C 226.058 269.510,226.286 269.374,226.565 269.374 C 226.844 269.374,227.073 269.222,227.073 269.036 C 227.073 268.595,227.088 268.591,225.790 269.422 M240.302 270.963 C 239.853 271.392,239.640 271.743,239.826 271.743 C 240.203 271.743,241.476 270.444,241.256 270.284 C 241.179 270.229,240.750 270.534,240.302 270.963 M238.917 271.975 C 238.917 272.165,237.889 273.022,236.633 273.879 C 232.496 276.702,231.309 277.557,230.795 278.085 C 230.200 278.697,236.918 274.183,238.409 272.969 C 238.968 272.514,239.310 272.027,239.171 271.886 C 239.031 271.745,238.917 271.785,238.917 271.975 M219.712 272.864 C 218.921 273.252,218.274 273.683,218.274 273.823 C 218.274 274.018,220.408 273.092,221.292 272.512 C 221.987 272.056,220.842 272.312,219.712 272.864 M209.052 277.440 C 208.168 277.722,207.445 278.060,207.445 278.190 C 207.445 278.379,210.239 277.592,210.801 277.245 C 211.349 276.905,210.391 277.012,209.052 277.440 M227.157 279.939 C 226.739 280.141,226.396 280.439,226.396 280.601 C 226.396 280.834,227.430 280.332,228.398 279.629 C 228.736 279.383,227.851 279.605,227.157 279.939 M222.220 282.489 C 220.947 283.121,219.980 283.714,220.071 283.805 C 220.209 283.943,224.233 282.091,224.676 281.686 C 225.241 281.169,224.173 281.517,222.220 282.489 M187.394 281.801 C 187.999 281.877,188.989 281.877,189.594 281.801 C 190.199 281.726,189.704 281.665,188.494 281.665 C 187.284 281.665,186.789 281.726,187.394 281.801 M163.113 282.199 C 162.302 282.426,170.529 282.316,171.574 282.086 C 171.853 282.024,170.254 281.971,168.020 281.968 C 165.787 281.965,163.579 282.069,163.113 282.199 M177.251 282.143 C 178.047 282.215,179.265 282.214,179.958 282.141 C 180.651 282.068,180.000 282.010,178.511 282.011 C 177.022 282.012,176.455 282.072,177.251 282.143 M182.318 282.140 C 182.923 282.215,183.913 282.215,184.518 282.140 C 185.123 282.065,184.628 282.003,183.418 282.003 C 182.208 282.003,181.713 282.065,182.318 282.140 M152.015 292.147 C 146.579 297.585,142.132 302.148,142.132 302.286 C 142.132 302.425,145.216 302.505,148.985 302.464 L 155.838 302.391 149.126 302.211 L 142.414 302.030 152.270 292.259 C 157.691 286.884,162.075 282.436,162.012 282.373 C 161.950 282.311,157.451 286.709,152.015 292.147 M216.966 284.816 C 215.544 285.437,215.733 285.751,217.197 285.199 C 217.971 284.907,218.896 284.061,218.190 284.292 C 218.143 284.307,217.592 284.543,216.966 284.816 M213.367 286.294 C 213.120 286.695,213.451 286.695,214.382 286.294 C 215.035 286.014,215.033 286.003,214.318 285.980 C 213.910 285.967,213.482 286.108,213.367 286.294 M203.770 289.052 C 203.145 289.231,202.696 289.442,202.774 289.519 C 202.945 289.690,205.415 289.033,205.415 288.817 C 205.415 288.617,205.146 288.656,203.770 289.052 M194.648 290.702 C 193.659 290.846,192.762 291.050,192.656 291.157 C 192.367 291.446,196.029 290.985,196.616 290.658 C 197.190 290.339,197.129 290.340,194.648 290.702 M173.435 291.709 L 169.374 291.911 173.096 291.950 C 175.144 291.971,177.580 291.869,178.511 291.725 C 180.594 291.400,179.692 291.397,173.435 291.709 M180.964 291.609 C 181.383 291.690,182.069 291.690,182.487 291.609 C 182.906 291.529,182.563 291.463,181.726 291.463 C 180.888 291.463,180.546 291.529,180.964 291.609 M188.240 291.604 C 188.566 291.689,189.099 291.689,189.425 291.604 C 189.750 291.519,189.484 291.449,188.832 291.449 C 188.181 291.449,187.915 291.519,188.240 291.604 M161.079 297.377 L 155.838 302.707 161.168 297.466 C 166.119 292.597,166.651 292.047,166.409 292.047 C 166.360 292.047,163.962 294.446,161.079 297.377 " stroke="none" fill="#84c43c" fill-rule="evenodd"></path><path id="path2" d="" stroke="none" fill="#88c444" fill-rule="evenodd"></path><path id="path3" d="" stroke="none" fill="#88c444" fill-rule="evenodd"></path><path id="path4" d="" stroke="none" fill="#88c444" fill-rule="evenodd"></path></g></svg>